<?xml version="1.0" encoding="UTF-8"?>
<svg width="44px" height="56px" viewBox="0 0 44 56" version="1.1" xmlns="http://www.w3.org/2000/svg" xmlns:xlink="http://www.w3.org/1999/xlink">
    <!-- Generator: Sketch 49 (51002) - http://www.bohemiancoding.com/sketch -->
    <title>下载</title>
    <desc>Created with Sketch.</desc>
    <defs></defs>
    <g id="Page-1" stroke="none" stroke-width="1" fill="none" fill-rule="evenodd">
        <g id="下载" fill-rule="nonzero">
            <path d="M3.21950716,36.4878049 C1.44105005,36.4878049 0,35.1368456 0,33.4695476 L0,20.1890268 C0,18.5217193 1.44105005,17.1707317 3.21950716,17.1707317 C4.99797434,17.1707317 6.43902439,18.5217193 6.43902439,20.1890268 L6.43902439,33.4695476 C6.43902439,35.1368456 4.99797434,36.4878049 3.21950716,36.4878049 Z" id="Shape" fill="#72C472"></path>
            <path d="M40.7804828,36.4878049 C39.0020257,36.4878049 37.5609756,35.1368456 37.5609756,33.4695476 L37.5609756,20.1890268 C37.5609756,18.5217193 39.0020257,17.1707317 40.7804828,17.1707317 C42.55895,17.1707317 44,18.5217193 44,20.1890268 L44,33.4695476 C44,35.1368456 42.55895,36.4878049 40.7804828,36.4878049 Z" id="Shape" fill="#72C472"></path>
            <path d="M7.51219512,17.1707317 L7.51219512,42.5243519 C7.51219512,43.8584894 8.59274168,44.9390273 9.92683084,44.9390273 L12.3414571,44.9390273 L12.3414571,52.7865337 C12.3414571,54.4539221 13.6924403,55.804878 15.3597518,55.804878 C17.0270821,55.804878 18.378037,54.4539221 18.378037,52.7865337 L18.378037,44.9390273 L25.621963,44.9390273 L25.621963,52.7865337 C25.621963,54.4539221 26.9729179,55.804878 28.6402104,55.804878 C30.307503,55.804878 31.6585523,54.4539221 31.6585523,52.7865337 L31.6585523,44.9390273 L34.0731314,44.9390273 C35.4072678,44.9390273 36.4878049,43.8584894 36.4878049,42.5243519 L36.4878049,17.1707317 L7.51219512,17.1707317 Z" id="Shape" fill="#72C472"></path>
            <path d="M29.10929,4.31589336 L31.5837862,1.00291884 C31.7874008,0.730053634 31.737778,0.338826193 31.4722061,0.129506611 C31.2067291,-0.0823041295 30.8260666,-0.0274823436 30.6223571,0.244134256 L28.0097143,3.74150702 C26.1766136,2.88429591 24.1471093,2.39214864 21.9999526,2.39214864 C19.8528907,2.39214864 17.8233864,2.88429591 15.9902857,3.74275514 L13.3776334,0.245380421 C13.1751668,-0.026236569 12.7956998,-0.077320446 12.5277654,0.130752776 C12.2622504,0.340072357 12.2125423,0.731299798 12.4162233,1.00416695 L14.890672,4.31714148 C10.7940715,6.68693124 7.92076309,11.0277771 7.51219512,16.097561 L36.4878049,16.097561 C36.0792473,11.0277771 33.2058715,6.68693124 29.10929,4.31589336 Z" id="Shape" fill="#72C472"></path>
            <path d="M15.5609798,10.7317073 C16.4500195,10.7317073 17.1707317,10.0109951 17.1707317,9.12195542 C17.1707317,8.23290819 16.4500195,7.51219512 15.5609798,7.51219512 C14.6719326,7.51219512 13.9512195,8.23290819 13.9512195,9.12195542 C13.9512195,10.0109951 14.6719326,10.7317073 15.5609798,10.7317073 Z" id="Shape" fill="#FFFFFF"></path>
            <path d="M28.4390286,10.7317073 C29.3280683,10.7317073 30.0487805,10.0109951 30.0487805,9.12195542 C30.0487805,8.23290819 29.3280683,7.51219512 28.4390286,7.51219512 C27.5499814,7.51219512 26.8292683,8.23290819 26.8292683,9.12195542 C26.8292683,10.0109951 27.5499814,10.7317073 28.4390286,10.7317073 Z" id="Shape" fill="#FFFFFF"></path>
        </g>
    </g>
</svg>