<?xml version="1.0" encoding="UTF-8"?>
<svg width="44px" height="44px" viewBox="0 0 44 44" version="1.1" xmlns="http://www.w3.org/2000/svg" xmlns:xlink="http://www.w3.org/1999/xlink">
    <!-- Generator: Sketch 49 (51002) - http://www.bohemiancoding.com/sketch -->
    <title>Group</title>
    <desc>Created with Sketch.</desc>
    <defs></defs>
    <g id="Page-1" stroke="none" stroke-width="1" fill="none" fill-rule="evenodd">
        <g id="Group">
            <rect id="Rectangle" fill="#D2DADF" x="0" y="13" width="42" height="29"></rect>
            <g id="blog-2复制" fill-rule="nonzero">
                <path d="M35.833072,15.6769833 C35.5364075,15.444836 35.1481714,15.3520208 34.773552,15.4236849 C26.771712,16.9565567 20.985008,23.6957222 20.985008,31.531325 L20.985008,34.9556106 L6.77635198,34.9556106 C6.071032,34.9556106 5.5,35.5026401 5.5,36.177508 C5.5,36.8529705 6.071032,37.4 6.77635198,37.4 L22.26136,37.4 C22.966064,37.4 23.537712,36.8529705 23.537712,36.177508 L23.537712,34.704096 C26.710527,33.908672 29.578411,32.2469847 31.797656,29.9181826 C32.110584,29.5911541 32.213456,29.1273682 32.066848,28.7063933 L31.689856,27.6224425 L32.913848,27.6224425 C33.370304,27.6224425 33.792264,27.3887658 34.019568,27.0100073 C35.5127328,24.5224263 36.2993612,21.6985464 36.3,18.8235921 L36.3,16.6217984 C36.3,16.2555265 36.128752,15.9082816 35.833072,15.6763887 L35.833072,15.6769833 Z M33.747296,18.8247813 C33.7467626,21.0346231 33.2006887,23.2125316 32.15432,25.1780531 L29.91824,25.1780531 C29.5086,25.1780531 29.1236,25.3665404 28.88336,25.6852446 C28.6435188,26.0031971 28.5780907,26.4135929 28.7078,26.7864387 L29.401416,28.7783396 C27.7540191,30.3410958 25.7433244,31.500907 23.537096,32.1610035 L23.537096,31.5307303 C23.537096,25.3968649 27.74684,20.0104082 33.747296,18.196292 L33.747296,18.8247813 Z" id="Shape" fill="#1F4561"></path>
                <polygon id="Shape" fill="#D2DADF" points="2.2 2.2 42.9 2.2 42.9 13.2 2.2 13.2"></polygon>
                <path d="M40.1328889,0 L3.8671111,0 C1.73234191,0.00235757113 0.00235757113,1.73234191 0,3.8671111 L0,40.1328889 C0.00235757113,42.2676581 1.73234191,43.9976424 3.8671111,44 L40.1328889,44 C42.2676581,43.9976424 43.9976424,42.2676581 44,40.1328889 L44,3.8671111 C43.9976424,1.73234191 42.2676581,0.00235757113 40.1328889,0 Z M3.8671111,2.5782778 L40.1328889,2.5782778 C40.8436111,2.5782778 41.4223333,3.1563889 41.4223333,3.8677222 L41.4223333,10.3125 L2.57766665,10.3125 L2.57766665,3.8671111 C2.57766665,3.1563889 3.15577775,2.57766665 3.8671111,2.57766665 L3.8671111,2.5782778 Z M40.1328889,41.4211111 L3.8671111,41.4211111 C3.15524987,41.4204373 2.57834043,40.8435279 2.57766665,40.1316667 L2.57766665,12.8913889 L41.4217222,12.8913889 L41.4217222,40.1335 C41.4217222,40.8442222 40.8436111,41.4229444 40.1322778,41.4229444 L40.1328889,41.4211111 Z" id="Shape" fill="#1F4561"></path>
                <path d="M7.94444445,6.59999999 C7.94444445,7.20751321 7.39723692,7.69999998 6.72222222,7.69999998 C6.04720753,7.69999998 5.5,7.20751321 5.5,6.59999999 C5.5,5.99248677 6.04720753,5.5 6.72222222,5.5 C7.39723692,5.5 7.94444445,5.99248677 7.94444445,6.59999999 Z M12.8333333,6.59999999 C12.8333333,7.20751321 12.2861258,7.69999998 11.6111111,7.69999998 C10.9360964,7.69999998 10.3888889,7.20751321 10.3888889,6.59999999 C10.3888889,5.99248677 10.9360964,5.5 11.6111111,5.5 C12.2861258,5.5 12.8333333,5.99248677 12.8333333,6.59999999 Z M18.3333333,6.59999999 C18.3333333,7.20751321 17.7861258,7.69999998 17.1111111,7.69999998 C16.4360964,7.69999998 15.8888889,7.20751321 15.8888889,6.59999999 C15.8888889,5.99248677 16.4360964,5.5 17.1111111,5.5 C17.7861258,5.5 18.3333333,5.99248677 18.3333333,6.59999999 Z M23.9353889,7.7 L37.1757222,7.7 C37.9072222,7.7 38.5,7.20775 38.5,6.59999999 C38.5,5.99224998 37.9072222,5.50000002 37.1757222,5.50000002 L23.9353889,5.50000002 C23.2038889,5.50000002 22.6111111,5.99225002 22.6111111,6.59999999 C22.6111111,7.20774996 23.2038889,7.69999996 23.9353889,7.7 Z" id="Shape" fill="#1F4561"></path>
            </g>
        </g>
    </g>
</svg>