<?xml version="1.0" encoding="UTF-8"?>
<svg width="129px" height="119px" viewBox="0 0 129 119" version="1.1" xmlns="http://www.w3.org/2000/svg" xmlns:xlink="http://www.w3.org/1999/xlink">
    <!-- Generator: Sketch 49 (51002) - http://www.bohemiancoding.com/sketch -->
    <title>wd-applet-custom-dashboards-labor-cost-analysis</title>
    <desc>Created with Sketch.</desc>
    <defs></defs>
    <g id="Page-1" stroke="none" stroke-width="1" fill="none" fill-rule="evenodd">
        <g id="wd-applet-custom-dashboards-labor-cost-analysis" fill-rule="nonzero">
            <path d="M8.00002805,9.24738493 C7.99506645,7.59183678 8.64849513,6.00242266 9.81598562,4.8302103 C10.9834761,3.65799794 12.5689634,2.99944089 14.2222471,3.00000036 L113.777753,3.00000036 C117.214492,3.00000036 119.999972,5.78930803 119.999972,9.24738493 L119.999972,50.7526153 C120.004934,52.4081634 119.351505,53.9975774 118.184014,55.1697898 C117.016524,56.3420021 115.431037,57.0005591 113.777753,56.9999996 L14.2222471,56.9999996 C10.7855082,56.9999996 8.00002805,54.210692 8.00002805,50.7526153 L8.00002805,9.24738493 Z" id="Shape" fill-opacity="0.530117754" fill="#5B908E"></path>
            <path d="M12.148148,6.23076917 L12.148148,47.7692308 C12.148148,48.9073846 13.0835554,49.8461539 14.2222222,49.8461539 L113.777778,49.8461539 C114.933037,49.8461539 115.851852,48.9240001 115.851852,47.7692308 L115.851852,6.23076917 C115.851852,5.09261537 114.916445,4.15384605 113.777778,4.15384624 L14.2222222,4.15384624 C13.0669629,4.15384624 12.148148,5.07600008 12.148148,6.23076917 Z M8,6.23076917 C8,2.78930771 10.7688888,0 14.2222222,0 L113.777778,0 C117.214519,0 120,2.80800004 120,6.23076917 L120,47.7692308 C120,51.2106923 117.231111,54 113.777778,54 L14.2222222,54 C10.7854815,54 8,51.192 8,47.7692308 L8,6.23076917 Z" id="Shape" fill="#3F3D56"></path>
            <path d="M4.0000223,21.2473847 C3.99770313,17.8058172 6.79336429,15.0114482 10.2502959,15 L118.749704,15 C120.411042,15.0021993 122.003335,15.6619068 123.175729,16.8337591 C124.348124,18.0056113 125.004409,19.5934435 124.999978,21.2473847 L124.999978,62.7526155 C125.002297,66.194183 122.206636,68.9885518 118.749704,69 L10.2502959,69 C8.5889579,68.9978007 6.99666488,68.3380932 5.82427071,67.166241 C4.65187653,65.9943888 3.99559062,64.4065566 4.0000223,62.7526155 L4.0000223,21.2473847 Z" id="Shape" fill="#5B908E"></path>
            <path d="M8.17241387,18.2307692 L8.17241387,59.7692308 C8.17241387,60.9073846 9.11120704,61.8461539 10.2502759,61.8461539 L118.749724,61.8461539 C119.888793,61.8461539 120.827586,60.9115385 120.827586,59.7692308 L120.827586,18.2307692 C120.827586,17.0926154 119.888793,16.1538461 118.749724,16.1538462 L10.2502759,16.1538462 C9.11120704,16.1538462 8.17241387,17.0884617 8.17241387,18.2307692 Z M4,18.2307692 C4,14.7893077 6.81220688,12 10.2502759,12 L118.749724,12 C122.2011,12.0091475 124.995416,14.7947434 125,18.2307692 L125,59.7692308 C125,63.2106923 122.187793,66 118.749724,66 L10.2502759,66 C6.79890039,65.9908525 4.00458352,63.2052566 4,59.7692308 L4,18.2307692 Z" id="Shape" fill="#3F3D56"></path>
            <path d="M0,29.2608695 C0,25.8027826 2.81511286,23 6.22112904,23 L122.778871,23 C126.218069,23.0114988 129.000019,25.8112204 129,29.2608695 L129,112.739131 C129,116.197217 126.184887,119 122.778871,119 L6.22112904,119 C2.78193148,118.988501 -1.91066931e-05,116.18878 5.31295438e-15,112.73913 L0,29.2608695 Z" id="Shape" fill="#FFFFFF"></path>
            <path d="M35.5,86 C39.3456391,86.0000001 43.0337708,84.4196475 45.7530483,81.6066018 C48.4723258,78.7935561 50,74.9782475 50,71.0000001 L35.5,71.0000001 L35.5,56 C27.4918711,56 21,62.7157288 21,71 C21,79.2842712 27.4918711,86 35.5,86 Z" id="Shape" fill-opacity="0.497225996" fill="#5B908E"></path>
            <path d="M81.4782608,59.65625 C81.4839861,58.5121606 82.4128683,57.5867512 83.5589566,57.5833332 L91.9193042,57.5833332 C93.0653925,57.5867512 93.9942747,58.5121606 94,59.65625 L94,90.9270833 C93.9942747,92.0711727 93.0653925,92.996582 91.9193042,93 L83.5589566,93 C82.4128683,92.996582 81.4839861,92.0711727 81.4782608,90.9270833 L81.4782608,59.65625 Z M46,59.6666666 L62.6956521,59.6666666 C62.6956521,44.4708333 46,43 46,43 L46,59.6666666 Z" id="Shape" fill="#5B908E"></path>
            <path d="M4,29.0952381 L4,112.904762 C3.9999429,114.053797 4.92132012,114.98851 6.06534493,115 L122.934655,115 C124.054948,115 125,114.050857 125,112.904762 L125,29.0952381 C125.000057,27.9462033 124.07868,27.0114903 122.934655,27 L6.06534493,27 C4.94505192,27 4.00000019,27.9491429 4,29.0952381 Z M0,29.2608695 C0,25.8027826 2.81511286,23 6.22112904,23 L122.778871,23 C126.218069,23.0114988 129.000019,25.8112204 129,29.2608695 L129,112.739131 C129,116.197217 126.184887,119 122.778871,119 L6.22112904,119 C2.78193148,118.988501 -1.91066931e-05,116.18878 5.31295438e-15,112.73913 L0,29.2608695 Z M96,44 L96,92 L104,92 L104,44 L96,44 Z M92,42.0595556 C92.0081522,40.922172 92.9532913,40.0033844 94.1186251,40 L106.881375,40 C108.050125,40 109,40.925037 109,42.0595556 L109,93.9404435 C108.991848,95.077827 108.046709,95.9966145 106.881375,95.9999989 L94.1186251,95.9999989 C92.9513703,96.001148 92.0035153,95.0797204 92,93.9404435 L92,42.0595556 Z M83,92 L91,92 L91,61 L83,61 L83,92 Z M79,58.0947369 C79.0058297,56.9386045 79.9516446,56.003454 81.1186251,56 L93.8813749,56 C95.0483554,56.003454 95.9941703,56.9386045 96,58.0947369 L96,93.9052633 C95.9941702,95.0613956 95.0483554,95.996546 93.8813749,96 L81.1186251,96 C79.9516446,95.996546 79.0058298,95.0613956 79,93.9052633 L79,58.0947369 Z M71,77 L71,92 L79,92 L79,77 L71,77 Z M67,75.0825454 C67.004666,73.933479 67.9508196,73.0034381 69.1186249,73 L81.8813751,73 C83.0501251,73 84,73.9304544 84,75.0825454 L84,93.9174536 C83.995334,95.0665199 83.0491804,95.9965608 81.8813751,95.9999989 L69.1186249,95.9999989 C68.5569261,96.0005538 68.01804,95.7813884 67.6206596,95.3907752 C67.2232791,95.0001621 66.9999997,94.4701414 67,93.9174536 L67,75.0825454 Z M35.5,85 C39.3456391,85 43.0337708,83.4723259 45.7530483,80.7530484 C48.4723258,78.0337709 50,74.3456392 50,70.5000001 L35.5,70.5000001 L35.5,56 C27.4918711,56 21,62.4918711 21,70.5 C21,78.5081289 27.4918711,85 35.5,85 Z M54,66.7777777 L54,71 C54,81.4934102 45.7172679,90 35.5,90 C25.2827321,90 17,81.4934102 17,71 C17,60.5065898 25.2827321,52 35.5,52 L39.6111112,52 L39.6111112,66.7777777 L54,66.7777777 Z M48,46 L48,59 L60,59 C59.9999999,51.8202983 54.627417,46.0000001 48,46 Z M48.2000001,42 C57.4783838,42 65,49.5216162 65,58.7999999 L65,63 L44,63 L44,42 L48.2000001,42 Z" id="Shape" fill="#3F3E56"></path>
        </g>
    </g>
</svg>