<?xml version="1.0" encoding="UTF-8"?>
<svg width="44px" height="44px" viewBox="0 0 44 44" version="1.1" xmlns="http://www.w3.org/2000/svg" xmlns:xlink="http://www.w3.org/1999/xlink">
    <!-- Generator: Sketch 49 (51002) - http://www.bohemiancoding.com/sketch -->
    <title>功能设置</title>
    <desc>Created with Sketch.</desc>
    <defs></defs>
    <g id="Page-1" stroke="none" stroke-width="1" fill="none" fill-rule="evenodd">
        <g id="功能设置" fill-rule="nonzero">
            <path d="M34.0547659,43.949877 L9.9532082,43.949877 C4.47917152,43.949877 0.0440474649,39.514753 0.0440474649,34.0407163 L0.0440474649,9.94523409 C0.0501229773,4.47119741 4.48524703,0.0360733549 9.9532082,0.0360733549 L34.0547659,0.0360733549 C39.5288026,0.0360733549 43.9639266,4.47119741 43.9639266,9.94523409 L43.9639266,34.0467918 C43.9639266,39.514753 39.5288026,43.949877 34.0547659,43.949877 Z" id="Shape" fill="#EB5C39"></path>
            <path d="M26.502904,21.8532384 L17.5111456,21.8532384 C13.7747055,21.8532384 10.7308738,18.8094067 10.7308738,15.0729666 C10.7308738,11.3365264 13.7747055,8.29877023 17.5111456,8.29877023 L26.502904,8.29877023 C30.2393441,8.29877023 33.2831758,11.3426019 33.2831758,15.0790421 C33.2831758,18.8154822 30.2393441,21.8532384 26.502904,21.8532384 Z M17.5111456,9.40451348 C14.3822567,9.40451348 11.836617,11.9501532 11.836617,15.0790421 C11.836617,18.207931 14.3822567,20.7535707 17.5111456,20.7535707 L26.502904,20.7535707 C29.6317929,20.7535707 32.1774326,18.207931 32.1774326,15.0790421 C32.1774326,11.9501532 29.6317929,9.40451348 26.502904,9.40451348 L17.5111456,9.40451348 Z M26.9160388,35.6871802 L17.0980108,35.6871802 C13.6592708,35.6871802 10.8706106,32.89852 10.8706106,29.4597799 C10.8706106,26.0210399 13.6592708,23.2323797 17.0980108,23.2323797 L26.9221143,23.2323797 C30.3608544,23.2323797 33.1495146,26.0210399 33.1495146,29.4597799 C33.1434391,32.9045955 30.3547789,35.6871802 26.9160388,35.6871802 Z" id="Shape" fill="#FFFFFF"></path>
            <path d="M13.9144423,15.0729666 C13.9144423,17.173455 15.6172246,18.8762373 17.7177131,18.8762373 C19.8182015,18.8762373 21.5209838,17.173455 21.5209838,15.0729666 C21.5209838,12.9724781 19.8182015,11.2696958 17.7177131,11.2696958 C15.6172246,11.2696958 13.9144423,12.9724781 13.9144423,15.0729666 Z" id="Shape" fill="#FFFFFF"></path>
            <path d="M23.5076764,29.4658554 C23.5076764,31.5663439 25.2104587,33.2691262 27.3109471,33.2691262 C29.4114356,33.2691262 31.1142179,31.5663439 31.1142179,29.4658554 C31.1142179,27.365367 29.4114356,25.6625847 27.3109471,25.6625847 C25.2104587,25.6625847 23.5076764,27.365367 23.5076764,29.4658554 Z" id="Shape" fill="#EB5C39"></path>
        </g>
    </g>
</svg>