<?xml version="1.0" encoding="UTF-8"?>
<svg width="1040px" height="530px" viewBox="0 0 1040 530" version="1.1" xmlns="http://www.w3.org/2000/svg" xmlns:xlink="http://www.w3.org/1999/xlink">
    <!-- Generator: Sketch 49 (51002) - http://www.bohemiancoding.com/sketch -->
    <title>undraw_connected_world_wuay</title>
    <desc>Created with Sketch.</desc>
    <defs></defs>
    <g id="Page-1" stroke="none" stroke-width="1" fill="none" fill-rule="evenodd">
        <g id="undraw_connected_world_wuay">
            <path d="M241.73197,49.21746 C241.358401,46.2640766 240.602887,43.3717084 239.48438,40.61291 C239.195984,39.5580564 238.477414,38.6730374 237.50428,38.17414 C236.860937,38.006868 236.186467,37.9993157 235.53954,38.15214 L225.45226,39.69564 C224.607969,39.7341998 223.799562,40.0483101 223.15073,40.58991 C221.83691,41.9716 223.13063,44.19647 223.09041,46.10266 C223.04518,48.24615 221.14067,49.98603 219.07541,50.56166 C216.967266,50.987617 214.792665,50.9606547 212.69573,50.48256 L198.59073,48.29062 C202.744833,46.964392 206.442376,44.496939 209.2613,41.16991 C211.11748,38.97101 212.10499,34.86572 209.4224,33.82442 C208.625347,33.6056897 207.794242,33.5389577 206.9725,33.62771 C200.58195,33.6774 195.55312,28.34171 189.5705,26.09449 C181.715859,23.334803 172.977323,25.9398137 167.91586,32.54987 L175.42976,32.91214 C176.136662,32.873127 176.837639,33.060077 177.43123,33.44593 C179.07793,34.79888 177.03066,37.3976 177.26264,39.51617 C177.56404,42.26865 181.2187,42.85634 183.97364,43.13467 C186.72858,43.413 190.22354,45.65134 188.89836,48.08258 C175.05172,52.85198 160.96126,38.75944 146.41936,40.49419 C142.73889,40.93325 139.26352,42.37912 135.67018,43.28828 C113.71944,48.8421 91.02627,34.02387 68.60237,37.16211 C63.6172719,38.0119524 58.7177766,39.3041313 53.96196,41.02333 C50.91003,42.02541 47.72667,43.10833 45.50916,45.43233 C43.29165,47.75633 42.44768,51.7308 44.54843,54.16087 C38.7582202,54.6376796 32.9293351,54.0836099 27.33266,52.52441 C30.4154431,54.2380429 32.3170024,57.4977422 32.29134,61.0247 C23.2506203,62.4989461 14.449286,65.1825915 6.12408,69.00345 C7.67787916,71.5873033 9.49271742,74.004895 11.54008,76.21824 L0.09474,83.57124 C3.96152,84.54549 5.96074,89.81817 3.71207,93.11124 C7.72148,91.32757 10.20632,86.71335 14.49372,85.77785 C17.30254,85.16497 20.16058,86.31401 22.82517,87.39341 C25.48976,88.47281 28.41841,89.51947 31.17683,88.70936 C33.93525,87.89925 35.96983,84.32253 34.21705,82.04372 C46.0072421,78.6037364 58.1921557,76.7000339 70.46976,76.3798 C71.4169662,76.2609303 72.3775583,76.443228 73.21536,76.90085 C74.81361,78.00968 74.3931,80.40466 74.30701,82.34797 C74.22092,84.29128 75.73552,86.84529 77.47236,85.96936 C75.42896,87.74127 77.1758,91.07701 79.13623,92.9403 C81.09666,94.80359 83.45954,97.37464 82.25932,99.79841 C81.94607,100.431 81.41477,100.93714 81.11337,101.57546 C80.22372,103.45962 81.63626,105.65622 83.30237,106.90746 C84.96848,108.1587 87.00929,109.03318 88.16665,110.76583 C89.32401,112.49848 88.79843,115.53131 86.72888,115.77326 L80.84652,108.30457 C78.8367734,110.388549 77.4589647,112.999556 76.87288,115.83479 C83.11063,120.93402 84.04888,131.31302 78.82668,137.4482 C76.158,140.58343 72.36294,142.48853 69.05068,144.93401 C65.73842,147.37949 62.67352,150.86184 62.68185,154.97901 C62.69624,162.09211 62.11504,168.70047 64.78049,175.2953 C69.6956042,187.455456 75.3702778,199.294609 81.77094,210.74272 C83.45178,213.74888 85.6241,217.04378 89.02914,217.56139 C84.72584,207.08525 80.8520167,196.446123 77.40767,185.64401 C79.65106,185.65279 82.24355,185.83091 83.55867,187.64841 C84.64767,189.15341 84.41374,191.19962 84.75212,193.02626 C85.1825053,194.795968 85.9001809,196.483123 86.87658,198.02057 L107.42608,234.62539 C109.1296,237.65987 111.08364,240.91708 114.3394,242.14596 C116.42098,242.93164 118.82927,242.78363 120.7452,243.91478 C122.24696,244.80141 123.25843,246.37526 124.78939,247.21044 C129.11824,249.57192 135.13795,245.04296 139.18339,247.86244 C140.3401,248.66862 141.07597,249.94935 142.14179,250.87235 C145.87809,254.10797 152.00719,251.94342 156.32035,254.35711 C159.10011,255.9127 160.54074,259.02378 162.02341,261.84311 C165.73734,268.90521 171.74668,275.82394 179.70598,276.38628 C182.20615,276.56292 184.75998,276.08888 187.20388,276.64497 C189.64778,277.20106 192.05354,279.33391 191.66124,281.80943 C190.98869,286.05343 193.08555,290.70055 192.5224,294.96043 C191.49661,302.71993 180.49029,306.12982 179.54489,313.89952 C179.33789,315.6007 179.66189,317.35664 179.25683,319.02181 C178.76037,321.06266 177.22767,322.72429 176.68304,324.75281 C175.65093,328.59702 178.40511,332.42281 181.43073,335.00907 C184.45635,337.59533 188.06537,339.82547 189.71951,343.44583 C191.4679,347.27248 190.6091,351.73433 191.17771,355.90283 C192.41905,365.00322 200.27928,371.7496 208.36853,376.09956 C210.83316,377.4249 213.47947,378.708 215.07468,381.00718 C217.15677,384.00809 216.94935,387.96418 217.6446,391.5499 C219.34731,400.33145 226.73987,407.56708 226.94977,416.50972 C227.09896,422.86585 223.56577,428.6321 221.45519,434.62944 C217.451136,446.256892 218.710944,459.051794 224.90584,469.67504 C226.4847,472.34104 228.37306,474.8546 229.48995,477.74479 C231.48305,482.90233 230.83634,488.76525 232.67403,493.98019 C235.10362,500.87479 241.77965,506.56953 241.14069,513.85171 C244.17159,520.14577 250.86438,523.23836 257.59432,525.11171 L269.6559,528.46921 C271.96539,529.11209 274.37871,529.76007 276.73038,529.29458 C279.08205,528.82909 281.32638,526.87635 281.26567,524.47982 C275.35084,523.14589 269.24631,521.7274 264.37051,518.12309 C259.49471,514.51878 256.1547,508.10038 258.00466,502.32609 C258.86247,499.64858 260.68744,496.55667 258.9524,494.3443 C257.95897,493.07758 256.1424,492.74663 255.02189,491.59086 C253.27414,489.78821 253.8746,486.75986 255.13107,484.58606 C256.38754,482.41226 258.20364,480.46965 258.71044,478.01052 C259.23441,475.193098 257.952069,472.346797 255.4946,470.8726 C257.731078,470.028264 259.765066,468.723176 261.4646,467.04201 C263.0346,465.2491 263.75981,462.48501 262.52479,460.44686 C266.19232,460.91199 270.52221,461.13979 272.92974,458.33426 C274.85225,456.09393 274.7202,452.74456 273.96056,449.89182 C273.20092,447.03908 271.91695,444.26825 271.87695,441.31638 C280.337283,441.717375 288.816213,441.429867 297.22995,440.4567 C296.01329,436.359123 293.248493,432.896539 289.52181,430.80316 C293.3324,430.15841 296.80392,425.59639 298.00781,421.92394 C299.2117,418.25149 298.90467,414.25126 298.16056,410.45881 C297.874777,409.482406 297.835608,408.450367 298.04656,407.45511 C298.47567,406.0876 299.81904,405.25311 301.0619,404.53937 L319.97629,393.67666 C321.104976,393.111145 322.128071,392.355851 323.0009,391.44376 C324.98257,389.11606 324.68902,385.60227 323.67434,382.71859 C322.65966,379.83491 321.03434,377.12326 320.6435,374.09136 C319.4745,365.02379 329.18112,358.51785 332.45694,349.98225 C333.7425,346.63257 334.0045,342.99153 334.25328,339.41225 C334.52048,335.56797 334.54034,331.10267 331.58862,328.62533 C328.75914,326.25061 324.33811,326.78033 321.37737,324.57145 C318.66289,322.54628 317.72637,318.61312 314.76095,316.97736 C312.0679,315.49186 308.69134,316.43663 305.69616,315.73797 C300.42252,314.50784 297.1038,308.42982 291.71792,307.86704 C288.67911,307.54951 285.23985,309.03511 282.74923,307.26535 C280.55462,305.70593 280.46667,302.57158 280.04892,299.91196 C278.549495,291.44616 271.935165,284.810533 263.47423,283.2839 C260.34104,282.78144 256.9306,282.97226 254.26514,281.25043 C251.56614,279.50691 250.32862,276.24267 248.20854,273.82816 C244.79163,269.93673 239.41012,268.55416 234.3689,267.36903 L213.86339,262.54847 C210.22327,261.69272 205.53118,261.23896 203.57779,264.42755 C202.999545,265.641622 202.59018,266.929122 202.36109,268.25421 C200.859495,273.171919 196.357925,276.560191 191.21673,276.64242 C189.498269,273.711093 186.714028,271.556772 183.44519,270.62915 C181.3659,270.04968 179.14027,269.98523 177.15719,269.1327 C174.974439,268.067298 173.326741,266.150062 172.601641,263.831936 C171.876541,261.513809 172.138035,258.999386 173.32462,256.88007 C175.755011,252.552928 174.985191,247.134044 171.44583,243.65498 C167.95864,240.5243 162.91432,239.76787 158.23847,240.08112 C157.01383,237.40898 159.06147,234.39412 161.26803,232.45224 C163.47459,230.51036 166.15403,228.60124 166.63452,225.7014 C167.3904,221.13994 161.57023,217.6754 157.15114,219.03549 C152.73205,220.39558 149.91153,224.6879 148.04707,228.91898 C146.97731,231.34661 146.06785,233.90298 144.38043,235.94998 C142.69301,237.99698 139.97562,239.46264 137.40536,238.80571 C133.7666,237.87571 132.36126,233.55258 131.55593,229.88421 C130.47543,224.96244 129.38864,219.97239 129.61504,214.9385 C129.84144,209.90461 131.53845,204.73596 135.25039,201.3282 C141.29917,195.77509 150.57839,196.31946 158.74171,197.20528 C156.81306,195.03228 157.28971,191.3701 159.35327,189.32477 C161.564842,187.359838 164.603797,186.613253 167.47411,187.32971 C169.933982,187.841754 172.149975,189.166699 173.76532,191.09123 C176.08511,193.91951 176.74478,197.73823 178.49821,200.94855 C180.25164,204.15887 184.19437,206.89704 187.42149,205.17472 C190.20887,203.68709 190.65128,199.82197 189.95755,196.73955 C189.26382,193.65713 187.79041,190.6598 188.0417,187.51029 C188.5212,181.50066 194.75082,177.88329 200.24809,175.40829 C205.74536,172.93329 212.04008,169.60474 212.911,163.63926 C212.940777,162.471251 213.161125,161.315946 213.56334,160.21897 C214.172904,159.25008 215.020225,158.45326 216.0247,157.90431 C232.06864,147.30144 248.37941,136.56914 266.71688,130.77553 C267.67088,130.4741 267.78288,130.8091 268.75515,130.57295 C270.11589,129.7865 269.21426,127.6109 267.90963,126.73448 C266.605,125.85806 264.8612,125.18595 264.53021,123.64953 C264.2869,122.52012 264.95234,121.41114 265.12521,120.26882 C265.54997,117.46182 262.19198,114.87016 259.58421,115.99237 C258.11121,114.0416 261.02585,111.7749 263.3826,111.12604 C270.459534,109.178381 277.724143,107.991659 285.05298,107.58604 C285.898695,107.451571 286.765163,107.598952 287.51886,108.00547 C288.74979,108.85813 288.59252,110.81382 287.72015,112.03087 C286.84778,113.24792 285.4908,114.01206 284.40369,115.04187 C281.982534,117.400486 281.077066,120.911503 282.05557,124.14687 C285.88157,126.09304 290.04109,128.09649 294.27857,127.41087 C298.51605,126.72525 302.27714,121.96412 300.28536,118.16163 C298.43056,114.62063 292.8591,113.82197 291.901,109.94111 C290.77923,105.39731 297.21141,101.35611 295.76251,96.90583 C295.12785,94.95646 293.18512,93.80921 291.6944,92.40183 C288.090862,88.8698739 287.028418,83.4864121 289.01995,78.85025 C284.092814,79.7170421 279.051399,78.1394097 275.49731,74.61855 C272.26283,71.3543 269.68241,66.20502 265.08939,66.35108 C260.87454,66.48508 257.24416,71.40238 253.30305,69.90219 C252.33347,69.53312 251.31119,68.78194 250.37174,69.22207 C249.747944,69.6271149 249.344812,70.2962858 249.27832,71.03707 C248.27678,75.82546 249.9997,81.28124 247.38993,85.41898 C244.55,89.92165 237.98113,90.5459 234.53826,94.60619 C232.66935,96.81026 231.94526,99.78024 230.22741,102.10395 C228.50956,104.42766 224.86348,105.90506 222.80192,103.88004 C224.888436,99.5906152 223.735155,94.4285455 220.02151,91.43496 C218.107497,90.1862165 216.044306,89.1826653 213.88032,88.44784 C211.462253,87.4243049 209.161961,86.1422822 207.01956,84.62413 C205.946347,83.9767592 205.074312,83.0436834 204.50092,81.92919 C204.047361,80.533671 204.108462,79.0218752 204.67316,77.66751 C206.803698,71.5592443 212.142784,67.1339814 218.5403,66.17383 C221.28518,65.8004 224.47985,65.93198 226.29637,63.84056 C227.25753,62.73395 227.76185,61.06087 229.15699,60.61143 C230.049383,60.4321364 230.975829,60.5462255 231.79806,60.93667 L242.04339,64.54285 C243.186511,65.0589147 244.444732,65.2670146 245.69314,65.14649 C246.977166,64.9734983 247.910353,63.8393327 247.83279,62.54603 C247.50544,60.84462 244.88744,60.02816 245.12566,58.31203 C245.259089,57.7558982 245.558076,57.2533217 245.98313,56.87068 C253.469429,48.9025253 264.123814,44.6951522 275.03443,45.39844 C276.32756,47.52224 274.28243,50.03719 272.58074,51.85022 C270.87905,53.66325 269.51156,56.90269 271.56949,58.29827 C272.412846,58.7286869 273.350954,58.9399573 274.2974,58.91262 C276.819795,59.2540411 279.271157,59.9975761 281.5582,61.11493 C285.09854,62.6556367 288.570937,64.3413867 291.97539,66.17218 C291.67467,63.92747 291.38766,61.56269 292.23848,59.46382 C293.0893,57.36495 295.50741,55.71867 297.61953,56.53606 C299.65505,57.32381 300.69898,60.01906 302.8676,60.26599 C305.76041,60.59538 306.90169,56.32175 305.69334,53.67284 C304.48499,51.02393 302.0929,48.80591 301.89323,45.90127 C301.75852,43.94169 302.50423,41.51138 300.93894,40.32479 C300.381923,39.9685488 299.749636,39.74684 299.09212,39.67721 L260.00825,32.48506 C257.68737,32.05797 254.3341,32.38531 254.23118,34.74292 C254.17372,36.05892 255.34925,37.36084 254.8286,38.5708 C254.27291,39.8622 252.4474,39.74413 251.11778,40.20089 C249.05472,40.9096 248.01948,43.35933 248.21762,45.53171 C248.580398,47.6902985 249.416386,49.7418531 250.66562,51.53922 C248.12344,50.47605 244.27415,50.28062 241.73197,49.21746 Z" id="Shape" fill="#3F3D56" fill-rule="nonzero"></path>
            <path d="M210.5469,16.04006 C205.498245,14.3692836 199.943637,16.0327797 196.64442,20.20358 C196.00088,21.05091 195.46042,22.21898 195.99916,23.13649 C196.77158,24.45187 198.7397,23.93232 200.19072,23.46179 C202.323455,22.6998243 204.644788,22.6444479 206.81143,23.30385 C208.17394,23.77165 209.3929,24.59842 210.76136,25.04854 C212.118823,25.6163138 213.678833,25.3883456 214.81706,24.45587 C215.75624,23.49801 215.81517,22.00887 215.81683,20.66737 C215.948758,19.7582896 215.663493,18.8382098 215.04043,18.16321 C214.492658,17.8459415 213.877122,17.6638789 213.2449,17.63213 C211.828991,17.3700444 210.548913,16.6221013 209.62541,15.51728" id="Shape" fill="#3F3D56" fill-rule="nonzero"></path>
            <path d="M224.63972,12.11626 C223.518069,12.0551777 222.445678,12.5831211 221.810066,13.5093124 C221.174455,14.4355036 221.067534,15.6260141 221.52794,16.65064 C223.221793,17.11258 224.991444,17.2279661 226.73094,16.98989 C228.505068,16.7144546 229.939559,15.3992496 230.3676,13.65564 C228.319603,14.0283325 226.206214,13.6247063 224.43971,12.5235" id="Shape" fill="#3F3D56" fill-rule="nonzero"></path>
            <path d="M271.92285,5.56316 C267.312575,6.54332983 262.834216,8.06463618 258.58085,10.09546 C262.697461,11.6778135 265.296332,15.7647701 264.98331,20.1639 C264.803361,20.9865253 264.824199,21.8403916 265.04406,22.65326 C265.53406,23.84119 266.95398,24.28693 268.20229,24.59184 C270.445055,25.2743969 272.786982,25.5733162 275.12929,25.47599 C277.509659,25.3514369 279.66626,24.0335685 280.86305,21.97217 C281.202507,21.0091392 281.600711,20.0678353 282.05542,19.15356 C285.04761,14.59651 293.93662,20.10666 297.14921,15.70222 C298.28089,14.15069 298.17738,11.81522 299.65265,10.58578 C300.41582,10.0501392 301.300188,9.71264003 302.22618,9.60365 C308.686714,8.32008227 315.212588,7.39065884 321.77459,6.81954 C324.88382,6.54897 328.93647,5.43254 328.96234,2.3117 C317.251137,0.0116717044 305.108135,1.64523801 294.42112,6.95844 C290.5707,8.88699 285.47812,12.94375 281.7692,10.38696 C280.3805,9.42965 280.44926,6.85186 278.53794,5.77539 C276.58384,4.67483 273.99717,5.12245 271.92285,5.56316 Z" id="Shape" fill="#3F3D56" fill-rule="nonzero"></path>
            <path d="M310.22194,12.7252 L315.71936,13.78152 C313.672217,13.6908578 311.685173,14.4861289 310.265866,15.9641618 C308.84656,17.4421948 308.132459,19.4598324 308.306,21.50162 C313.45411,23.22142 319.06672,21.54786 324.48968,21.77647 C329.91264,22.00508 336.22229,25.87879 335.29656,31.22704 C335.01665,32.84417 334.08246,34.46022 334.56825,36.02784 C334.90874,37.12659 335.87775,37.90622 336.4247,38.91816 C337.56445,41.02685 336.65352,43.69403 335.21436,45.6109 C333.7752,47.52777 331.84078,49.05722 330.57753,51.09432 C327.43566,56.16089 329.22072,62.71096 331.09232,68.37123 C331.633484,70.5099352 332.632781,72.5055579 334.02109,74.22006 C336.79394,77.16828 341.31267,77.42469 345.35955,77.48375 C348.30501,77.52675 351.67916,77.38122 353.54183,75.09911 C355.97363,72.1197 354.27318,67.47119 355.87423,63.97445 C357.3283,60.7987 361.03296,59.43627 364.38944,58.46999 C370.53855,56.69975 376.8051,55.19476 382.61844,52.52084 C389.83714,49.20052 396.5835,44.02616 404.51769,43.59876 C406.74361,43.47886 409.02469,43.74156 411.16881,43.13169 C413.31293,42.52182 415.34969,40.66807 415.18737,38.44484 C415.04867,36.54525 413.44152,35.15035 412.18572,33.71835 C410.92992,32.28635 409.94372,30.08435 411.09788,28.56927 L431.89443,24.68485 C430.42028,20.6674 429.27188,15.37634 432.65932,12.76133 C433.88153,11.81782 435.51797,11.44071 436.5586,10.30006 C438.33223,8.35596 437.44035,5.00706 435.39297,3.35371 C433.34559,1.70036 430.57729,1.31655 427.95472,1.09871 C418.8359,0.34139 409.66472,0.84182 400.52825,1.34263 C382.66839,2.32160333 364.808527,3.30057333 346.94866,4.27954 C343.35332,4.47661 339.20227,4.17554 335.90477,5.40213 C333.1132,6.44056 331.12835,8.34671 327.9356,9.01642 C322.04164,10.25278 315.55542,9.41615 310.22194,12.7252 Z" id="Shape" fill="#3F3D56" fill-rule="nonzero"></path>
            <path d="M408.70648,56.17846 C408.146289,56.0898194 407.573452,56.2197358 407.10631,56.54137 C406.797425,56.8814709 406.613689,57.316698 406.58541,57.77526 C406.230504,59.7990676 406.653258,61.882244 407.76901,63.6076 C408.926505,65.3312969 410.928285,66.2910219 412.99701,66.11409 C415.47237,65.79844 417.2966,63.68663 419.57231,62.65614 C423.07974,61.06933 437.97517,58.59562 427.67131,53.02887 C424.12038,51.11044 421.82587,52.80396 419.02716,54.06738 C415.842876,55.6963897 412.274663,56.4262625 408.70648,56.17846 Z" id="Shape" fill="#3F3D56" fill-rule="nonzero"></path>
            <path d="M498.9563,9.5826 C497.75312,10.0741491 496.746584,10.9502923 496.09386,12.07422 C495.46926,13.2595217 495.883959,14.7263915 497.0367,15.40922 C497.486096,15.572162 497.962489,15.6477304 498.44025,15.63186 L503.3324,15.77801 C505.41069,15.8401 508.00671,16.28272 508.56518,18.28552 C508.97987,19.77266 508.05172,21.68365 509.1716,22.74639 C509.652215,23.1185713 510.230123,23.3439721 510.83581,23.39548 C512.447341,23.8094509 514.13022,23.8637616 515.76509,23.55456 C519.32462,22.5998 517.45427,20.4273 518.57536,18.49285 C520.29069,15.53301 519.99374,17.32474 523.01621,15.62839 C525.24832,14.37562 528.13268,12.10307 526.26963,8.9101 C523.02982,3.3576 503.73708,7.19726 498.9563,9.5826 Z" id="Shape" fill="#3F3D56" fill-rule="nonzero"></path>
            <path d="M595.51518,6.79107 L592.67445,7.17015 C586.26853,8.02499 579.82631,8.8877 573.65654,10.81138 C576.327245,11.8673135 579.129234,12.5548661 581.98537,12.85511 C583.55761,12.9321783 585.119383,13.1541831 586.65082,13.5183 C589.37592,14.32954 592.12182,16.42442 594.75459,15.3513 C596.38698,14.68592 596.91967,12.98624 598.27189,12.08545 C599.20561,11.46345 602.74705,10.45671 603.14295,9.82891 C606.34354,4.75355 597.9754,6.46277 595.51518,6.79107 Z" id="Shape" fill="#3F3D56" fill-rule="nonzero"></path>
            <path d="M607.98915,19.70207 C604.194607,21.8238258 600.674033,24.4020595 597.50596,27.37926 C596.17125,28.63394 594.80796,30.19442 594.92902,32.02226 C595.08988,34.45164 597.67773,35.8608 599.91976,36.81004 L609.00099,40.65489 C610.10266,39.10213 609.09435,36.9587 607.95577,35.43279 C606.81719,33.90688 605.46417,32.14144 605.96721,30.30522 C606.54127,28.20977 609.09621,27.49571 611.23867,27.13472 C614.72944,26.54655 624.14605,26.59372 623.01459,20.96803 C621.6814,14.33926 611.49325,17.74344 607.98915,19.70207 Z" id="Shape" fill="#3F3D56" fill-rule="nonzero"></path>
            <path d="M606.163,394.82926 C605.29847,397.33213 605.21645,400.28054 606.71191,402.46578 C608.38998,404.91786 611.74831,405.8319 614.65381,405.21007 C617.547179,404.44026 620.126133,402.782129 622.02739,400.46925 C623.766179,398.53152 625.196619,396.337903 626.26855,393.96532 C627.764611,390.268013 628.819747,386.407282 629.41213,382.463 L632.23173,367.659 C632.8618,364.3504 632.83741,354.20679 626.75632,357.51169 C625.09506,358.41453 621.24868,365.54292 619.50772,367.56433 C616.36994,371.20756 615.95479,374.74257 614.30295,379.15622 C612.23393,384.68459 608.07564,389.29206 606.163,394.82926 Z" id="Shape" fill="#3F3D56" fill-rule="nonzero"></path>
            <path d="M927.34508,470.58658 C925.35517,469.810042 923.423986,468.890701 921.56662,467.83574 C919.704119,472.956072 918.71394,478.352617 918.63732,483.80063 L932.2532,476.09585 C934.30146,474.93685 936.62297,473.32637 936.57893,470.97333 C936.616564,470.381408 936.327828,469.816214 935.82616,469.4998 C935.523583,469.37836 935.19412,469.339702 934.87165,469.3878 C932.85265,469.55606 931.01177,470.54952 929.10716,471.24036 C927.20255,471.9312 924.97547,472.29636 923.22797,471.27113" id="Shape" fill="#3F3D56" fill-rule="nonzero"></path>
            <path d="M999.17167,475.16081 C997.677274,475.567602 996.217269,476.091558 994.80522,476.72781 C991.68061,478.31762 989.55501,481.33728 986.74322,483.43123 C984.05251,485.43501 980.81347,486.53517 977.63372,487.60485 C976.69835,488.43166 977.12816,490.09685 978.1435,490.82318 C979.235167,491.444208 980.487212,491.725633 981.73963,491.63149 C985.04306,491.70441 988.52334,491.73622 991.41683,490.14068 C993.047196,489.08311 994.572821,487.872231 995.97292,486.52454 C999.35599,483.7018 1003.41871,481.83937 1007.44035,480.03954 C1008.9041,479.486863 1010.25759,478.677626 1011.43727,477.64982 C1013.9644,475.16009 1014.1421,471.31913 1010.49815,470.47175 C1007.55387,469.787 1001.97515,474.25386 999.17167,475.16081 Z" id="Shape" fill="#3F3D56" fill-rule="nonzero"></path>
            <path d="M1030.90784,454.43039 C1031.23937,450.959194 1029.95813,447.528067 1027.43259,445.12375 C1027.39535,448.5514 1027.29126,452.20298 1025.36346,455.03737 C1023.98988,457.05689 1021.83624,458.42113 1020.33136,460.34481 C1018.82648,462.26849 1018.15848,465.3177 1019.92367,467.00569 C1021.05195,467.864256 1022.42624,468.33759 1023.84392,468.35591 C1027.35769,468.76953 1031.42478,469.00006 1033.88923,466.46152 C1035.23436,465.07595 1035.88866,463.0238 1037.52923,462.00512 C1038.14038,461.748494 1038.68613,461.35795 1039.12623,460.86229 C1039.80363,459.78545 1038.7273,458.36629 1037.51573,457.97829 C1036.30416,457.59029 1034.96903,457.77269 1033.75139,457.40419 C1032.53375,457.03569 1031.41664,455.6665 1032.04139,454.5583" id="Shape" fill="#3F3D56" fill-rule="nonzero"></path>
            <path d="M974.50292,328.75926 C972.65948,329.207608 970.750344,329.320173 968.86699,329.09156 C965.73885,328.51646 963.30419,326.15894 960.77871,324.22556 C954.77521,319.654463 947.476992,317.104523 939.93308,316.94226 C933.07056,316.81267 926.14393,318.67226 919.40394,317.37483 C919.84429,319.8241 921.94015,321.66111 924.17636,322.75299 C926.41257,323.84487 928.8806,324.39434 931.12754,325.46399 C934.726068,327.194033 937.580288,330.163385 939.16675,333.82748 C939.89044,335.51671 940.34575,337.355 941.44199,338.82998 C943.68259,341.8448 947.92958,342.50681 951.67772,342.26026 C956.56444,341.93881 961.66832,340.53336 966.21459,342.354 C969.69248,343.74678 972.18166,346.79082 975.08559,349.15776 C977.98952,351.5247 982.07968,353.28141 985.41418,351.57358 C978.305242,349.272036 973.518641,342.615432 973.59982,335.14365 C976.87027,335.44439 986.29002,335.328 985.78263,329.771 C985.35271,325.06152 977.31114,328.25095 974.50292,328.75926 Z" id="Shape" fill="#3F3D56" fill-rule="nonzero"></path>
            <path d="M931.71968,367.07638 C932.30036,363.89152 935.47646,361.07905 934.48712,357.99657 C933.80292,355.86486 931.33127,354.81241 929.09306,354.75985 C926.85485,354.70729 924.65606,355.374 922.41812,355.43678 C920.961443,355.359451 919.501213,355.380191 918.04732,355.49886 C913.60486,356.22911 910.86663,360.88546 906.68004,362.5411 C904.13437,363.54781 901.27453,363.35536 898.62698,364.05131 C892.61707,365.6311 888.8144,371.31016 884.61325,375.88892 C877.825236,383.254046 868.98206,388.411227 859.2292,390.69244 C855.8121,391.48367 852.13875,391.98988 849.42263,394.20918 C845.82582,397.14807 844.94044,402.18632 844.14021,406.76166 C841.929307,419.397582 838.550485,431.801052 834.04721,443.81251 L848.31764,445.63451 C851.03078,445.98092 853.8421,446.3199 856.45654,445.51627 C858.356053,444.7997 860.15529,443.841302 861.80979,442.66476 C868.165397,438.718845 875.278635,436.151218 882.68924,435.12802 C886.42624,434.61497 890.34424,434.52096 893.85116,435.91002 C897.35808,437.29908 900.36668,440.44914 900.66059,444.20968 C903.750749,443.248312 907.119212,444.067541 909.42272,446.34068 C911.657354,448.617544 913.120609,451.538631 913.606,454.69174 C913.9819,456.64408 914.358,458.98337 916.16965,459.8024 C917.64765,460.4706 919.34311,459.75092 920.95996,459.62154 C926.44645,459.18254 930.99918,465.57989 936.39184,464.47826 C942.17537,463.29678 943.59527,454.63515 949.23751,452.90012 C952.47806,451.90363 957.02351,453.11536 958.57525,450.10104 C959.94299,447.44419 957.21418,444.37822 957.49559,441.40326 C957.84209,437.7401 962.16302,436.18526 965.49406,434.62226 C976.97806,429.23371 982.42761,413.77726 976.86274,402.37769 C973.56557,395.62347 967.078,390.30669 965.87987,382.88676 C964.95805,377.178 967.20846,370.52098 963.5687,366.02745 C961.71713,363.74157 958.58217,362.47981 957.48039,359.75225 C956.78686,358.03535 957.06561,356.08737 956.69239,354.2737 C956.31917,352.46003 954.73685,350.5629 952.94586,351.033 C947.74697,352.3976 946.08802,368.45781 943.30456,372.36 C939.07342,378.29159 930.38724,374.38442 931.71968,367.07638 Z" id="Shape" fill="#3F3D56" fill-rule="nonzero"></path>
            <path d="M835.62541,334.82736 C833.84878,334.3292 831.9088,333.83846 830.20651,334.55036 C828.50422,335.26226 827.51009,337.76158 828.87634,339.00173 C839.56481,338.58536 850.31872,338.17189 860.91634,339.62342 C873.12651,341.29581 885.21043,345.43842 897.47418,344.21968 C890.46879,342.152959 883.347779,340.500546 876.14812,339.27102 L864.14222,336.97756 C860.921487,336.302979 857.667163,335.800125 854.39303,335.47113 C847.54373,334.90546 842.35968,336.71563 835.62541,334.82736 Z" id="Shape" fill="#3F3D56" fill-rule="nonzero"></path>
            <path d="M846.32577,297.60144 C845.43844,297.52735 844.33947,297.46352 843.88042,298.22644 C843.44184,298.95537 843.94385,299.91844 843.70801,300.73584 C843.38581,301.85251 841.92337,302.13778 840.77113,301.98575 C839.61889,301.83372 838.37273,301.46962 837.35189,302.02519 C836.288441,302.751622 835.831961,304.092699 836.23139,305.31707 C836.648767,306.500567 837.323778,307.576596 838.20767,308.46744 C839.71739,310.369866 841.437593,312.095296 843.33543,313.61078 C847.00897,316.32241 851.98581,317.62915 854.29954,321.56546 C854.625936,322.32838 855.12762,323.003592 855.76387,323.53629 C856.8746,324.23986 858.32318,323.70461 859.51906,323.15818 L863.71106,321.24277 C864.466168,320.970767 865.14027,320.512307 865.67073,319.90999 C866.62845,318.61051 866.0402,316.76289 865.23635,315.36299 C864.4325,313.96309 863.40353,312.51432 863.57604,310.9093 C863.88361,308.04759 867.56309,306.95296 869.07604,304.50449 C870.60104,302.03649 869.60826,298.85656 869.78404,295.96049 C869.98973,292.57375 872.11782,288.16839 868.69391,285.63797 C865.78402,283.48743 863.00274,285.47452 860.91355,287.84876 C856.50787,292.85553 854.42467,298.27776 846.32577,297.60144 Z" id="Shape" fill="#3F3D56" fill-rule="nonzero"></path>
            <path d="M871.77134,246.99849 C873.20251,249.73874 876.18607,251.37402 877.7467,254.04266 C879.43829,256.93522 879.24556,260.67253 881.0807,263.47622 C882.96349,266.35274 886.75248,267.87992 887.80839,271.15166 C888.96117,274.72359 886.34561,279.06503 888.43054,282.18603 C889.216681,283.217462 890.399221,283.872084 891.690651,283.990737 C892.982081,284.10939 894.264106,283.681207 895.22503,282.81029 C897.05299,280.81997 896.961741,277.73546 895.01932,275.85668 C893.78488,274.73117 892.01232,274.2448 890.98164,272.93015 C890.444869,272.171467 890.087297,271.300848 889.93587,270.3839 C889.374032,267.738989 889.464029,264.997105 890.1981,262.39473 C890.473898,261.734265 890.543928,261.005935 890.39903,260.30502 C889.93503,258.95629 888.10877,258.8606 886.82703,258.23491 C883.91586,256.81385 883.98651,252.70538 884.49513,249.50601 C884.1565,251.63601 876.56925,248.01327 875.77475,246.80675 C874.19644,244.40994 875.05544,239.78649 874.74299,237.13789 C871.33557,238.77983 870.02152,243.64805 871.77134,246.99849 Z" id="Shape" fill="#3F3D56" fill-rule="nonzero"></path>
            <path d="M795.33452,289.16032 C793.93413,287.59263 791.82483,285.95261 789.94737,286.89807 C788.51498,287.61938 788.12096,289.60124 788.68237,291.10352 C789.366293,292.562743 790.419321,293.818136 791.73729,294.74552 C795.64984,297.97233 799.86298,300.88466 803.27629,304.63564 C809.38462,311.34833 812.62044,320.406 819.26353,326.58995 C820.598837,328.023647 822.366957,328.980554 824.29753,329.31435 C826.23294,329.4944 828.40631,328.25554 828.62878,326.32455 C828.81203,324.73391 827.70315,323.31019 826.61949,322.13146 C824.03897,319.32455 821.2139,316.74089 818.77756,313.80797 C817.652365,312.681386 816.945254,311.204594 816.7731,309.62168 C816.76074,308.04248 818.20082,306.3896 819.73086,306.78068 C817.87003,306.30505 816.48999,303.20492 813.75886,302.62216 C811.47642,302.13516 810.92426,303.54816 808.20793,302.38316 C803.0272,300.16117 798.96258,293.22183 795.33452,289.16032 Z" id="Shape" fill="#3F3D56" fill-rule="nonzero"></path>
            <path d="M917.06661,136.51379 C915.580497,136.072104 914.11942,135.550182 912.68981,134.95032 C908.8432,133.79568 903.75373,136.62304 904.26646,140.60632 C904.60713,143.25289 907.07022,145.03722 908.43046,147.33288 C910.4477,150.73727 909.90992,155.05524 908.84987,158.86778 C908.589619,160.048257 908.094674,161.164358 907.39446,162.14973 C906.415497,163.190043 905.24519,164.031909 903.94758,164.62926 C898.752922,167.542213 894.17187,171.434065 890.45768,176.08966 C890.053872,176.519626 889.772575,177.049886 889.64302,177.62534 C889.45957,178.97023 890.81143,179.94992 891.57573,181.07162 C893.2735,183.56333 892.04638,186.91622 892.21422,189.92668 C892.161771,190.792145 892.560854,191.623134 893.26913,192.12326 C894.29242,192.64306 895.50499,191.76012 896.05963,190.75526 C897.90025,187.42058 896.5137,182.06786 899.96663,180.46003 C900.61979,180.15589 901.41163,180.02767 901.84737,179.4539 C902.53868,178.54369 901.87171,177.19597 902.22205,176.10802 C902.74805,174.47454 904.98218,174.40121 906.69673,174.47366 C909.650216,174.597167 912.602589,174.204114 915.42089,173.3122 C916.526448,173.049321 917.530585,172.467853 918.30889,171.63984 C919.34109,170.35164 919.24961,168.51998 919.04336,166.8822 C918.010289,158.717129 915.42392,150.825259 911.42385,143.63255 C914.45699,144.02001 917.75692,144.35555 920.37429,142.77483 C921.83991,141.88968 923.59744,139.24268 922.87054,137.44102 C921.72101,134.59191 919.6444,136.99007 917.06661,136.51379 Z" id="Shape" fill="#3F3D56" fill-rule="nonzero"></path>
            <path d="M528.21765,181.42033 C528.58065,183.36714 528.93747,185.41704 528.29946,187.29181 C527.66145,189.16658 525.65441,190.73305 523.7592,190.15861 C522.28836,189.7128 521.43874,188.23389 520.39432,187.10637 C514.58618,180.83609 501.48211,184.46637 497.89409,176.70899 C496.42974,173.54299 497.4249,169.74999 496.42609,166.40788 C495.130139,162.434955 491.311731,159.840968 487.14082,160.10005 C485.291243,160.367178 483.490945,160.904582 481.79759,161.69505 C470.453358,166.238334 458.543739,169.217084 446.39639,170.54935 C444.087854,170.690003 441.804333,171.105494 439.59421,171.78702 C434.60641,173.59528 431.1984,178.21942 428.77306,182.93808 C426.34772,187.65674 424.55721,192.76519 421.30556,196.95742 C417.8882,201.36332 413.09947,204.44857 408.6325,207.78571 C406.911713,208.894725 405.47885,210.396485 404.45181,212.16742 C403.4834,214.15556 403.53803,216.46807 403.6132,218.67825 L404.52615,245.52194 C404.64358,248.9747 404.79103,252.55088 406.33637,255.64076 C408.26609,259.49919 412.07819,262.02629 414.72278,265.43476 C417.421628,268.937554 418.827491,273.265171 418.70248,277.68532 C418.64619,279.46238 418.46961,281.56425 419.85361,282.68032 C420.69553,283.226188 421.680691,283.509516 422.68397,283.49432 L458.99562,286.46624 C465.3831,286.98902 472.46191,287.84858 476.63218,292.71501 C478.60035,295.01174 480.18141,298.31457 483.19605,298.56101 C484.48914,298.6667 485.74735,298.13589 487.0407,298.03346 C490.30375,297.77503 493.1703,300.25164 494.97938,302.97954 C497.717441,307.137333 498.960307,312.102601 498.50389,317.06001 C498.20726,320.1718 497.24246,323.19701 497.03446,326.31601 C496.243,338.18378 506.30361,348.49458 506.49862,360.38712 C506.61333,367.38243 503.29254,373.91842 500.05495,380.12048 C505.28027,388.03639 501.00151,398.57738 503.08183,407.83148 C505.05548,416.61109 512.37583,423.4843 514.19994,432.29619 C515.035,436.33026 515.08331,441.2946 518.64056,443.37235 C520.201457,444.133146 521.931824,444.479611 523.66531,444.37844 C534.121432,444.502296 544.45834,442.148981 553.83038,437.51102 C558.229,435.32826 562.78759,432.06974 563.55578,427.21977 C564.17528,423.30858 562.19184,418.93372 564.21038,415.52687 C566.58938,411.51156 572.68386,411.82987 576.18418,408.74273 C581.86279,403.73449 577.4347,394.18305 579.7355,386.9695 C581.80364,380.4854 588.92285,377.04064 592.45179,371.22108 C593.840551,368.718295 594.837143,366.017272 595.40679,363.21226 C597.023436,356.508177 598.029731,349.671482 598.41335,342.78591 C598.507391,338.602374 598.815846,334.42641 599.3375,330.27446 C603.14225,306.63671 626.51074,290.80846 634.09777,268.10046 C634.82234,265.93183 635.16261,263.04324 633.23334,261.81613 C632.089006,261.270177 630.791718,261.1344 629.55914,261.43158 L612.82029,263.54191 C610.74119,263.80403 608.53738,264.04902 606.62803,263.18546 C604.71868,262.3219 603.35026,259.90646 604.36303,258.07193 C607.20603,252.92222 601.35789,246.41466 598.75978,241.13718 C591.762687,226.926691 583.430334,213.41366 573.8752,200.7805 C573.263539,200.130617 572.880507,199.298984 572.7842,198.41174 L577.53488,198.56992 C575.93123,192.81553 573.28475,186.51853 567.69424,184.41355 C564.54401,183.2274 561.05537,183.63755 557.69424,183.82121 C548.06708,184.34714 537.74601,182.89362 528.21765,181.42033 Z" id="Shape" fill="#3F3D56" fill-rule="nonzero"></path>
            <path d="M557.70208,51.74458 C560.22128,54.41985 563.04426,57.25629 566.68925,57.72258 C573.12725,58.54625 577.75613,51.88874 580.70325,46.10598 C580.930097,49.1714087 583.555825,51.4992862 586.62635,51.35719 C588.215505,51.0898126 589.732238,50.4968333 591.08135,49.61547 C603.837024,42.6446747 618.12438,38.9512768 632.66027,38.86698 C632.37111,36.5863525 633.851154,34.4556847 636.08927,33.9306 C639.04469,33.34468 641.7069,35.89986 643.13258,38.55414 C644.55826,41.20842 645.44723,44.28495 647.71232,46.27171 C649.97741,48.25847 654.36279,48.17192 655.25748,45.29488 C656.11642,42.53279 653.23893,40.17731 650.8483,38.54888 C648.45767,36.92045 645.93786,33.90647 647.54776,31.50332 C659.76107,28.79981 672.05014,26.08606 684.54755,25.5487 C686.675264,25.6227689 688.795413,25.2575389 690.7757,24.4758 C692.68159,23.54053 694.19644,21.4175 693.68393,19.35729 C688.105632,20.6685939 682.288447,18.4744075 678.96574,13.80573 C696.30674,12.37473 714.75074,11.155 730.11885,19.31466 C731.96303,23.27366 722.56385,26.56752 725.07865,30.13833 C725.8807,31.27719 727.48786,31.41075 728.88055,31.4366 C739.56003,31.63488 750.30115,31.82931 760.86008,30.21697 C764.71876,29.62776 768.61626,28.79597 772.49032,29.27378 C778.94305,30.06959 784.46205,34.37504 790.81032,35.77878 C793.39413,36.35013 796.29126,36.36948 798.46932,34.86665 C800.64738,33.36382 801.58361,29.94186 799.79875,27.98821 C805.77589,22.13009 815.6961,23.58199 823.58141,26.38657 C831.46672,29.19115 838.9369,33.714 847.28274,34.33915 C853.26746,34.78744 859.33534,33.17764 865.24897,34.20085 C868.96511,34.84385 872.42366,36.49706 876.05566,37.51275 C882.92498,39.43375 890.19156,39.02824 897.32382,39.12069 C915.521695,39.3658553 933.520739,42.9423832 950.42987,49.67321 C952.629513,50.3893644 954.644924,51.5801076 956.33354,53.16121 C957.90688,54.84606 958.70928,57.46421 957.65183,59.51263 L940.17911,56.95963 C941.82538,60.20044 946.08438,60.75271 949.54311,61.87072 C953.00184,62.98873 956.58801,66.80831 954.50941,69.79032 C950.76185,68.59708 947.3658,72.34389 945.47273,75.79126 C943.57966,79.23863 941.27273,83.36726 937.34541,83.57726 C933.8286,83.76532 929.57534,80.7708 927.28302,83.44449 C930.449953,87.4396691 933.161852,91.7752927 935.36852,96.37111 C937.63323,101.08923 939.24627,107.03422 936.18528,111.2792 C935.703706,112.037001 934.973259,112.603438 934.11943,112.8812 C931.61953,113.51406 929.99525,110.45581 928.20243,108.6022 C925.94331,106.26637 922.52683,105.60477 919.46748,104.5093 C916.40813,103.41383 913.18537,101.25885 912.946,98.01811 C912.79707,96.0018 913.86163,94.12746 914.64576,92.26392 C915.963711,89.1228196 916.540107,85.7202592 916.33021,82.32034 C916.15856,79.58509 915.39159,76.73983 913.42721,74.82871 C911.46283,72.91759 908.07132,72.31132 905.96249,74.06171 C904.97849,74.87844 904.1899,76.18486 902.91206,76.23371 C900.65423,76.32009 898.92068,72.38371 897.10417,73.72742 C897.317302,75.1591611 897.020437,76.6202662 896.26547,77.85531 C890.84484,82.56969 882.51747,80.57524 875.52924,82.24061 C872.20623,83.1916174 869.024705,84.5810294 866.0686,86.37219 C864.962766,86.8450435 864.021787,87.6348811 863.36442,88.64202 C862.49211,90.33718 863.45386,92.50823 864.99142,93.63535 C866.621979,94.6353923 868.454292,95.2608072 870.35601,95.46642 C878.87551,97.07994 887.51928,99.57773 894.24543,105.04987 C900.97158,110.52201 905.38243,119.56777 903.25397,127.97343 L886.45312,111.91981 C887.09124,118.660377 887.453367,125.41951 887.5395,132.19721 C887.64814,133.52058 887.466384,134.851708 887.00694,136.09751 C885.80921,138.74296 882.563,139.63318 879.71838,140.21717 C878.118064,140.521211 876.723828,141.494359 875.886598,142.891677 C875.049368,144.288996 874.848881,145.977402 875.3356,147.53193 C876.34628,150.82624 878.86629,153.39464 881.17373,155.95386 C883.48117,158.51308 885.75188,161.42174 886.05395,164.85433 C886.35602,168.28692 883.76629,172.15599 880.32872,171.91733 C877.72278,171.73639 875.78942,169.40355 874.6779,167.03962 C873.56638,164.67569 872.905,162.04233 871.2349,160.03373 C866.17996,153.95417 854.8259,156.55891 850.29746,150.07762 C847.950503,152.739876 847.149199,156.427454 848.17967,159.82362 C850.28638,158.50478 853.17043,159.73015 854.75326,161.64645 C856.33609,163.56275 857.0828,166.01958 858.32583,168.17189 C860.00317,171.07619 862.6726,173.65089 862.90673,176.99661 C862.844658,178.261739 862.865984,179.529584 862.97057,180.79191 C863.38646,182.81911 865.09991,184.27471 866.28791,185.96916 C869.05222,189.91188 868.91563,195.32823 867.13391,199.80172 C865.35219,204.27521 862.1512,208.01324 858.98067,211.63735 C853.44293,217.96735 847.79216,224.26024 841.22698,229.51697 C839.35365,231.01697 837.35438,232.49189 836.18764,234.58897 C835.0209,236.68605 834.96107,239.62961 836.75398,241.22483 C835.47111,241.28908 833.17043,241.92005 831.88756,241.9843 C831.436533,236.837985 831.338507,231.666821 831.59417,226.50711 C826.53155,224.07623 821.08056,230.58624 821.73385,236.16411 C822.38714,241.74198 826.42151,246.21811 829.29385,251.04395 C831.39434,254.57295 832.95538,258.68786 832.25412,262.73437 C831.55286,266.78088 827.94077,270.51382 823.84948,270.15693 C817.34181,269.58927 814.61974,260.24687 808.17548,259.17767 C807.607113,259.044231 807.010515,259.103461 806.47948,259.34605 C805.52287,259.87105 805.35659,261.15105 805.30288,262.24092 C805.03923,267.59007 804.81096,273.15185 806.89908,278.08365 C809.95386,285.29858 817.84552,291.35827 816.19008,299.01637 C807.27224,294.87101 802.6356,284.87023 800.53041,275.26397 C798.42522,265.65771 798.07436,255.57297 794.30066,246.49163 C791.43516,250.16441 785.41219,247.12823 782.79405,243.27521 C780.31192,239.62234 778.7837,235.39676 776.37553,231.69471 C773.96736,227.99266 770.27825,224.67771 765.86653,224.47415 C761.24107,224.26069 757.22953,227.43486 753.7017,230.43401 C750.80077,232.90021 747.82239,235.46346 746.1267,238.87258 C743.65913,243.83346 744.30461,249.6818 744.1857,255.22121 C744.05712,261.20982 742.78796,267.5283 738.70637,271.91242 C734.62478,276.29654 727.09106,277.82357 722.58907,273.87237 C720.23872,271.80956 719.10072,268.7276 718.08707,265.76927 C713.200962,251.508957 709.131672,236.981725 705.899,222.25826 C705.14253,225.61875 702.19168,229.95009 699.37271,227.97057 C698.740169,227.438428 698.227709,226.778155 697.86917,226.03335 C692.61086,217.12118 682.87303,211.77555 673.03417,208.57035 C663.19531,205.36515 652.84358,203.87006 643.11383,200.34747 C637.661349,198.372653 632.453546,195.778544 627.59266,192.61607 C625.068241,196.324974 624.781786,201.119746 626.84666,205.10283 C629.00494,208.92439 633.88892,211.1355 638.06966,209.79972 C640.23011,209.10943 642.0546,207.60963 644.19828,206.86888 C646.34196,206.12813 649.21921,206.49188 650.15659,208.5572 C651.05384,210.53405 649.69765,212.92549 650.3704,214.98956 C651.39504,218.13325 656.1364,218.37545 657.79435,221.23619 C659.02793,223.36466 658.01293,226.1911 656.25161,227.90862 C654.49029,229.62614 652.14031,230.56814 649.99027,231.76373 C643.01406,235.64301 638.05314,242.26524 631.95635,247.41747 C625.85956,252.5697 617.25769,256.33134 609.99172,253.02647 C611.72372,244.25632 601.27672,237.81752 599.35483,229.08702 C598.72224,226.21345 599.05017,223.16094 598.14705,220.3606 C596.83949,216.30615 593.24239,213.51847 590.29148,210.44593 C583.060605,202.83528 579.211665,192.625818 579.61861,182.13573 C579.77807,178.52754 580.44097,174.86058 579.61896,171.34365 C578.79695,167.82672 575.88516,164.42272 572.27696,164.58211 C564.03589,164.94611 553.65391,165.55911 549.33018,158.53395 C547.78703,156.02664 547.11549,152.3544 549.3466,150.43344 C550.92051,149.07833 553.24378,149.20598 555.3107,149.40931 L573.87902,151.23591 C578.22188,151.66313 582.91641,152.0157 586.64311,149.74531 C590.36981,147.47492 591.98462,141.44831 588.53384,138.7772 C586.01248,136.82549 581.49512,136.93132 580.76219,133.8282 C580.15178,131.24379 583.01236,128.31146 581.46738,126.15164 C580.35959,124.603 577.86904,125.03264 576.35985,126.19358 C574.85066,127.35452 573.75567,129.0523 572.06664,129.9313 C569.10373,131.4733 565.56348,130.00576 562.37574,129.00838 C559.188,128.011 554.91449,127.9263 553.36831,130.88701 C551.63911,134.1982 554.9021,138.53701 553.18598,141.85496 C550.91708,146.24171 543.2334,143.74445 540.04692,147.51775 C536.39047,151.84758 542.53503,158.30397 541.30192,163.83538 C538.099473,165.421413 534.29917,165.207902 531.29453,163.27314 C528.334626,161.259917 526.720777,157.78278 527.09389,154.2226 C527.39912,151.7343 528.6964,149.19428 527.82718,146.84284 C527.1244,144.94166 525.21554,143.80984 523.44147,142.82946 L505.39724,132.85838 C503.72196,135.96612 505.83989,139.81888 508.48868,142.15309 C511.13747,144.4873 514.45519,146.24534 516.19523,149.31729 C518.480103,153.735357 516.929353,159.16862 512.65669,161.71505 C512.134697,162.075356 511.481234,162.189344 510.86808,162.02705 C510.286451,161.685273 509.86799,161.122558 509.70808,160.46717 C506.52434,152.31979 501.74431,144.28681 494.10219,140.03075 C486.46007,135.77469 475.47913,136.64975 470.46776,143.8193 C469.27745,145.52221 468.47857,147.4633 467.44165,149.26371 C461.93265,158.82904 450.12228,163.35858 439.08795,163.06271 C438.008505,163.12241 436.934695,162.870081 435.99481,162.33587 C434.2115,161.10422 434.29181,158.4907 434.56481,156.34066 L435.72307,147.21638 C435.95566,145.38416 436.29269,143.35896 437.74285,142.21522 C439.78702,140.60298 442.73585,141.62042 445.33908,141.58293 C449.37916,141.393796 452.870207,138.699553 454.07708,134.83931 C455.148831,130.961042 453.986223,126.808137 451.05662,124.05005 C449.86347,122.92939 448.262,121.52168 448.8922,120.01094 C449.40124,119.165009 450.258539,118.587712 451.2338,118.43413 C455.90988,117.07621 460.8508,116.72029 465.44892,115.11805 C470.04704,113.51581 474.50622,110.23768 475.59515,105.49175 C475.92886,104.03734 476.08079,102.27551 477.3872,101.55443 C478.042711,101.277665 478.746661,101.13384 479.4582,101.1313 C484.62537,100.396181 488.376262,95.8375422 488.10245,90.62553 C490.30609,89.08574 493.39345,90.21841 495.52531,91.85615 C497.65717,93.49389 499.53931,95.65763 502.13331,96.36361 C506.96745,97.67931 511.63911,93.39917 516.64905,93.37933 C518.75588,93.37099 520.93687,94.11592 522.91894,93.40164 C524.92827,92.67753 526.1282,90.67734 527.67035,89.19964 C529.2125,87.72194 531.91841,86.82064 533.34241,88.4125 L532.1298,79.4305 C537.070469,80.6786384 542.309468,79.7314622 546.50035,76.8324 L530.82835,71.53709 C530.282663,71.4008522 529.779185,71.1316527 529.36284,70.75351 C528.22345,69.52661 529.35516,67.61471 530.28167,66.22004 C532.49812,62.88362 532.87019,57.38773 529.2253,55.72668 C526.73741,54.5929 523.88172,55.95384 521.49378,57.28531 L510.05519,63.66326 C509.69169,65.83753 512.35056,67.06978 513.99819,68.53434 C516.038603,70.3480482 516.754345,73.2294039 515.799803,75.7870729 C514.845261,78.344742 512.416771,80.0526456 509.68699,80.08608 C511.212787,82.0697515 511.754094,84.6394688 511.15816,87.07008 L503.46199,87.62359 C502.598241,87.7973685 501.70082,87.6222115 500.96581,87.13639 C500.14268,86.40534 500.25431,85.12428 500.06353,84.04004 C499.60307,81.42312 497.04063,79.58898 494.42547,79.11869 C491.81031,78.6484 489.13494,79.25121 486.54535,79.84643 C485.445756,80.2421229 484.23823,80.2142563 483.15806,79.76826 C482.53867,79.3658888 482.068014,78.7718329 481.81798,78.07683 C480.68267,75.32408 481.74386,72.08846 483.56726,69.73437 C485.39066,67.38028 487.88678,65.65937 490.12856,63.69958 C495.489554,58.9957585 499.428355,52.8865137 501.50002,46.06197 C505.73678,44.28684 510.12302,41.87497 514.35973,40.0998 C520.891628,36.7927133 528.216619,35.3734849 535.51099,36.00171 L549.85907,36.27577 C554.10707,36.35691 558.46998,36.46088 562.39801,38.08037 C566.32604,39.69986 569.7775,43.20259 570.04869,47.44271 C570.214972,48.4185176 569.867377,49.4112177 569.12869,50.07015 C568.573963,50.3728833 567.94565,50.5145066 567.31469,50.47903 C563.35292,50.61826 561.66376,51.6054 557.70208,51.74458 Z" id="Shape" fill="#3F3D56" fill-rule="nonzero"></path>
            <path d="M443.33861,96.712 C444.481395,95.6302311 444.923328,94.0002557 444.48348,92.48939 C441.701161,91.4157038 438.550779,92.0105871 436.35157,94.02493 C435.50156,94.8847026 434.769013,95.8531353 434.17299,96.90503 C432.2876,99.98103 430.61999,103.65524 431.71264,107.09365 C431.892538,107.851153 432.370028,108.504237 433.03728,108.90542 C433.526977,109.101971 434.054937,109.18467 434.58128,109.14727 C436.65828,109.144571 438.733236,109.01686 440.79489,108.76483 C442.06098,108.61003 443.53152,108.25249 444.02082,107.07456 C444.66401,105.52616 443.10724,103.77382 443.56107,102.15973 C443.859644,101.437934 444.312106,100.789972 444.88689,100.26105 C445.465029,99.7210695 445.754786,98.9401425 445.66879,98.15374 C445.48564,97.39639 444.32598,96.96674 443.90853,97.62474" id="Shape" fill="#3F3D56" fill-rule="nonzero"></path>
            <path d="M454.10879,82.74866 C452.263672,82.3250041 450.361743,82.2055684 448.47812,82.39507 C448.061531,82.3826629 447.64864,82.4764952 447.27833,82.66773 C446.919525,82.932337 446.659319,83.3091487 446.53897,83.73842 C445.714003,86.3863821 447.062022,89.2238125 449.63587,90.25705 C450.312341,90.4125757 450.960318,90.6729704 451.5563,91.02879 C453.14882,92.26438 452.1336,94.78993 452.43507,96.78289 C452.77359,99.02081 454.93983,100.8993 454.54267,103.12756 C454.22978,104.88305 452.35482,106.2731 452.65667,108.03056 C452.97284,109.87123 455.30856,110.42433 457.17036,110.57173 C458.249365,110.760674 459.359992,110.633386 460.36827,110.20522 C461.378891,109.514171 462.097673,108.473225 462.38586,107.28333 C463.14808,105.014546 463.468369,102.620691 463.32939,100.23133 C463.321186,99.1446038 463.048243,98.076252 462.53419,97.11876 C461.97354,96.360218 461.352064,95.6485806 460.67592,94.9909 C457.10888,90.84169 460.86475,84.65263 454.10879,82.74866 Z" id="Shape" fill="#3F3D56" fill-rule="nonzero"></path>
            <path d="M923.17056,407.78415 C923.17056,407.78415 649.96916,250.96159 532.35224,280.67534 C532.35224,280.67534 283.08692,307.50025 254.19855,366.51505 C254.19855,366.51505 174.96189,118.90049 146.07355,110.64667" id="Shape" stroke="#5B908E" stroke-width="2" opacity="0.8"></path>
            <path d="M254.19855,366.51505 C300.00725,244.35854 712.69818,108.99591 712.69818,108.99591 C654.09608,123.85278 532.35224,280.67534 532.35224,280.67534 C532.35224,280.67534 274.83308,93.31365 146.07353,110.64667 C146.07353,110.64667 713.11087,129.21776 923.17053,407.78415" id="Shape" stroke="#5B908E" stroke-width="2" opacity="0.8"></path>
            <circle id="Oval" fill="#5B908E" fill-rule="nonzero" cx="146.07353" cy="110.64667" r="11.96804"></circle>
            <circle id="Oval" fill="#5B908E" fill-rule="nonzero" cx="254.19856" cy="366.51505" r="11.96804"></circle>
            <circle id="Oval" fill="#5B908E" fill-rule="nonzero" cx="712.69818" cy="108.99591" r="11.96804"></circle>
            <circle id="Oval" fill="#5B908E" fill-rule="nonzero" cx="923.17056" cy="407.78414" r="11.96804"></circle>
            <circle id="Oval" fill="#5B908E" fill-rule="nonzero" cx="532.35225" cy="280.67534" r="11.96804"></circle>
        </g>
    </g>
</svg>