<svg width="45" height="54" viewBox="0 0 45 54" fill="none" xmlns="http://www.w3.org/2000/svg">
<path fill-rule="evenodd" clip-rule="evenodd" d="M2.4438 4.6988C5.99207 0.0226448 10.9243 0 10.9243 0C10.9243 0 11.6576 4.39657 8.13287 8.63202C4.36948 13.154 0.0913586 12.4146 0.0913586 12.4146C0.0913586 12.4146 -0.711661 8.8576 2.4438 4.6988Z" transform="translate(21.8428)" fill="#1E2023"/>
<path fill-rule="evenodd" clip-rule="evenodd" d="M22.3879 2.50922C24.2134 2.50922 27.6005 0 32.0102 0C39.6005 0 42.5862 5.40078 42.5862 5.40078C42.5862 5.40078 36.7464 8.38641 36.7464 15.6319C36.7464 23.8049 44.0215 26.6216 44.0215 26.6216C44.0215 26.6216 38.936 40.9357 32.0668 40.9357C28.9122 40.9357 26.4587 38.8097 23.1351 38.8097C19.748 38.8097 16.3861 41.015 14.1965 41.015C7.92394 41.015 0 27.4368 0 16.5229C0 5.78487 6.70721 0.151546 12.999 0.151546C17.0872 0.150675 20.261 2.50922 22.3879 2.50922Z" transform="translate(0 12.9851)" fill="#1E2023"/>
</svg>
