<?xml version="1.0" encoding="UTF-8"?>
<svg width="44px" height="44px" viewBox="0 0 44 44" version="1.1" xmlns="http://www.w3.org/2000/svg" xmlns:xlink="http://www.w3.org/1999/xlink">
    <!-- Generator: Sketch 49 (51002) - http://www.bohemiancoding.com/sketch -->
    <title>JS</title>
    <desc>Created with Sketch.</desc>
    <defs></defs>
    <g id="Page-1" stroke="none" stroke-width="1" fill="none" fill-rule="evenodd">
        <g id="JS" fill-rule="nonzero">
            <path d="M9.90000542,0 L34.0999946,0 C39.5676278,0 44,4.43233324 44,9.90001518 L44,34.0999848 C44,39.5674499 39.5676278,44 34.0999946,44 L9.90000542,44 C4.4324156,44 0,39.5674933 0,34.0999848 L0,9.90001518 C0,4.43233324 4.4324156,1.61768058e-15 9.90000542,0 Z" id="Shape" fill="#FAC552"></path>
            <path d="M15.9874821,11.1291372 C14.3438874,11.2158178 13.5230216,12.0767183 13.5230216,13.7096837 L13.5230216,27.9031848 C13.5230216,29.8832172 12.8744315,30.8287294 11.5774245,30.7420057 C11.0586044,30.7420057 10.3654722,30.5281706 9.50201409,30.0966643 C8.63669286,29.6671408 8.03065169,29.4515385 7.6861437,29.4515385 C6.73364474,29.625029 6.1741388,30.3124822 6,31.5161826 C6.17426879,33.7541446 8.16042172,34.9131901 11.9664313,35 C16.2022201,34.9132332 18.3646783,32.6774263 18.4518127,28.290381 L18.4518127,13.7097268 C18.364635,12.0767614 17.5438558,11.2158609 15.9873088,11.1291803 L15.9874821,11.1291372 Z M29.6067917,20.419432 C27.0977891,19.6451258 25.8451943,18.7863374 25.8451943,17.8387994 C25.8451943,16.5485046 26.7531945,15.8610083 28.5690215,15.7742846 C29.6067051,15.8610083 30.4700765,16.0766106 31.1632954,16.4194105 C31.9413956,16.5928147 32.5455303,16.6775556 32.9791225,16.6775556 C34.2761727,16.6775556 35.0098175,15.8610083 35.1842163,14.2258016 C35.0098175,12.334648 32.8493958,11.2581883 28.6988349,11 C23.5105471,11.4316356 20.7866765,13.9255015 20.5273098,18.4839683 C20.5273098,21.4960641 22.8174149,23.6453198 27.4017413,24.9356146 C30.1682475,25.7096621 31.5523455,26.6129762 31.5523455,27.645212 C31.4652111,29.5382622 30.3405231,30.4838174 28.1800581,30.4838174 C27.3146502,30.4838174 26.1899189,30.2700255 24.8077274,29.8387347 C24.0294539,29.4959779 23.293816,29.2803325 22.6026769,29.1936089 C21.2184489,29.3670993 20.4827244,30.1411469 20.3975398,31.5161826 C20.482681,33.7541446 23.1639593,34.9131901 28.4393815,35 C33.7999449,34.741941 36.6535422,32.2903594 37,27.6452551 C37.0000867,24.2057047 34.5355828,21.7964505 29.6068351,20.4194751 L29.6067917,20.419432 Z" id="Shape" fill="#014A51"></path>
        </g>
    </g>
</svg>