<?xml version="1.0" encoding="UTF-8"?>
<svg width="118px" height="118px" viewBox="0 0 118 118" version="1.1" xmlns="http://www.w3.org/2000/svg" xmlns:xlink="http://www.w3.org/1999/xlink">
    <!-- Generator: Sketch 49 (51002) - http://www.bohemiancoding.com/sketch -->
    <title>057-landing-page</title>
    <desc>Created with Sketch.</desc>
    <defs></defs>
    <g id="Page-1" stroke="none" stroke-width="1" fill="none" fill-rule="evenodd">
        <g id="057-landing-page" fill-rule="nonzero">
            <path d="M106.961382,2 L10.0386179,2 C5.59900407,2 2,5.59900407 2,10.0386179 L2,115 L115,115 L115,10.0386179 C115,5.59900407 111.400996,2 106.961382,2 Z" id="Shape" fill="#FFFFFF"></path>
            <path d="M107.946023,2 L43.0539773,2 C38.6058807,2 35,5.59104167 35,10.0208333 L35,24 L116,24 L116,10.0208333 C116,5.59104167 112.394119,2 107.946023,2 Z" id="Shape" fill-opacity="0.590692935" fill="#5B908E"></path>
            <path d="M15,13.5 C15,15.9852814 17.0147186,18 19.5,18 C21.9852814,18 24,15.9852814 24,13.5 C24,11.0147186 21.9852814,9 19.5,9 C17.0147186,9 15,11.0147186 15,13.5 Z" id="Shape" fill-opacity="0.409222147" fill="#5B908E"></path>
            <path d="M32,13.5 C32,15.9852814 34.0147186,18 36.5,18 C38.9852814,18 41,15.9852814 41,13.5 C41,11.0147186 38.9852814,9 36.5,9 C34.0147186,9 32,11.0147186 32,13.5 Z" id="Shape" fill-opacity="0.409222147" fill="#5B908E"></path>
            <path d="M50,13.5 C50,15.9852814 52.0147186,18 54.5,18 C56.9852814,18 59,15.9852814 59,13.5 C59,11.0147186 56.9852814,9 54.5,9 C52.0147186,9 50,11.0147186 50,13.5 Z" id="Shape" fill="#5B908E"></path>
            <polygon id="Shape" fill="#5B908E" points="35 35 104 35 104 66 35 66"></polygon>
            <path d="M25,79 L38.4476399,79 L38.4476399,103 L25,103 L25,79 Z M56.7943428,79 L70.7238199,79 L70.7238199,103 L56.7943428,103 L56.7943428,79 Z M89.5523601,79 L103,79 L103,103 L89.5523601,103 L89.5523601,79 Z" id="Shape" fill="#ADC8C7"></path>
            <path d="M107.628906,0 L10.3710938,0 C4.65247266,0 0,4.65247266 0,10.3710938 L0,115.695312 C0,116.968191 1.03180859,118 2.3046875,118 L115.695312,118 C116.968191,118 118,116.968191 118,115.695312 L118,10.3710938 C118,4.65247266 113.347527,0 107.628906,0 Z M113.390625,113.390625 L4.609375,113.390625 L4.609375,26.734375 L92.8789063,26.734375 C94.1517852,26.734375 95.1835938,25.7025664 95.1835938,24.4296875 C95.1835938,23.1568086 94.1517852,22.125 92.8789063,22.125 L4.609375,22.125 L4.609375,10.3710938 C4.609375,7.19408203 7.19408203,4.609375 10.3710938,4.609375 L107.628906,4.609375 C110.805918,4.609375 113.390625,7.19408203 113.390625,10.3710938 L113.390625,113.390625 Z" id="Shape" fill="#000000"></path>
            <path d="M18.9059406,6 C15.098005,6 12,9.09846977 12,12.9069767 C12,16.7154837 15.098005,19.8139535 18.9059406,19.8139535 C22.7138762,19.8139535 25.8118812,16.7154837 25.8118812,12.9069767 C25.8118812,9.09846977 22.7138762,6 18.9059406,6 Z M18.9059406,15.2093023 C17.6366287,15.2093023 16.6039604,14.1764791 16.6039604,12.9069767 C16.6039604,11.6374744 17.6366287,10.6046512 18.9059406,10.6046512 C20.1752525,10.6046512 21.2079208,11.6374744 21.2079208,12.9069767 C21.2079208,14.1764791 20.1752525,15.2093023 18.9059406,15.2093023 Z M36.5830767,6 C32.7751411,6 29.6771361,9.09846977 29.6771361,12.9069767 C29.6771361,16.7154837 32.7751411,19.8139535 36.5830767,19.8139535 C40.3910124,19.8139535 43.4890173,16.7154837 43.4890173,12.9069767 C43.4890173,9.09846977 40.3910124,6 36.5830767,6 Z M36.5830767,15.2093023 C35.3137649,15.2093023 34.2810965,14.1764791 34.2810965,12.9069767 C34.2810965,11.6374744 35.3137649,10.6046512 36.5830767,10.6046512 C37.8523886,10.6046512 38.8850569,11.6374744 38.8850569,12.9069767 C38.8850569,14.1764791 37.8523886,15.2093023 36.5830767,15.2093023 Z M54.2602129,6 C50.4522772,6 47.3542723,9.09846977 47.3542723,12.9069767 C47.3542723,16.7154837 50.4522772,19.8139535 54.2602129,19.8139535 C58.0681485,19.8139535 61.1661535,16.7154837 61.1661535,12.9069767 C61.1661535,9.09846977 58.0681485,6 54.2602129,6 Z M54.2602129,15.2093023 C52.990901,15.2093023 51.9582327,14.1764791 51.9582327,12.9069767 C51.9582327,11.6374744 52.990901,10.6046512 54.2602129,10.6046512 C55.5295248,10.6046512 56.5621931,11.6374744 56.5621931,12.9069767 C56.5621931,14.1764791 55.5295248,15.2093023 54.2602129,15.2093023 Z M102.69802,32.3807372 L69.3193069,32.3807372 C68.0479233,32.3807372 67.0173267,33.4114884 67.0173267,34.6830628 C67.0173267,35.9546372 68.0479233,36.9853884 69.3193069,36.9853884 L100.39604,36.9853884 L100.39604,63.6923651 L16.6039604,63.6923651 L16.6039604,36.9853884 L47.9108911,36.9853884 C49.1822748,36.9853884 50.2128713,35.9546372 50.2128713,34.6830628 C50.2128713,33.4114884 49.1822748,32.3807372 47.9108911,32.3807372 L14.3019802,32.3807372 C13.0305965,32.3807372 12,33.4114884 12,34.6830628 L12,65.9946907 C12,67.2662651 13.0305965,68.2970163 14.3019802,68.2970163 L102.69802,68.2970163 C103.969403,68.2970163 105,67.2662651 105,65.9946907 L105,34.6830628 C105,33.4117186 103.969403,32.3807372 102.69802,32.3807372 Z M38.2425743,76.4511628 L14.3019802,76.4511628 C13.0305965,76.4511628 12,77.481914 12,78.7534884 L12,102.697674 C12,103.969249 13.0305965,105 14.3019802,105 L38.2425743,105 C39.5139579,105 40.5445545,103.969249 40.5445545,102.697674 L40.5445545,78.7534884 C40.5445545,77.481914 39.5139579,76.4511628 38.2425743,76.4511628 Z M35.9405941,100.395349 L16.6039604,100.395349 L16.6039604,81.055814 L35.9405941,81.055814 L35.9405941,100.395349 Z M70.470297,76.4511628 L46.529703,76.4511628 C45.2583193,76.4511628 44.2277228,77.481914 44.2277228,78.7534884 L44.2277228,102.697674 C44.2277228,103.969249 45.2583193,105 46.529703,105 L70.470297,105 C71.7416807,105 72.7722772,103.969249 72.7722772,102.697674 L72.7722772,78.7534884 C72.7722772,77.481914 71.7416807,76.4511628 70.470297,76.4511628 Z M68.1683168,100.395349 L48.8316832,100.395349 L48.8316832,81.055814 L68.1683168,81.055814 L68.1683168,100.395349 Z M102.69802,76.4511628 L78.7574257,76.4511628 C77.4860421,76.4511628 76.4554455,77.481914 76.4554455,78.7534884 L76.4554455,102.697674 C76.4554455,103.969249 77.4860421,105 78.7574257,105 L102.69802,105 C103.969403,105 105,103.969249 105,102.697674 L105,78.7534884 C105,77.481914 103.969403,76.4511628 102.69802,76.4511628 Z M100.39604,100.395349 L81.0594059,100.395349 L81.0594059,81.055814 L100.39604,81.055814 L100.39604,100.395349 Z M102.69802,21.655814 C102.092599,21.655814 101.498688,21.9021628 101.07052,22.3303953 C100.642351,22.7586279 100.39604,23.3526279 100.39604,23.9581395 C100.39604,24.5636512 100.642351,25.1576512 101.07052,25.5858837 C101.498688,26.0141163 102.092599,26.2604651 102.69802,26.2604651 C103.303441,26.2604651 103.897351,26.0141163 104.32552,25.5858837 C104.753688,25.1576512 105,24.5636512 105,23.9581395 C105,23.3526279 104.753688,22.7586279 104.32552,22.3303953 C103.892837,21.9002115 103.308112,21.6578493 102.69802,21.655814 Z" id="Shape" fill="#000000"></path>
            <path d="M59.5,38 C60.1575,38 60.8025,37.735 61.2675,37.2675 C61.7325,36.8025 62,36.16 62,35.5 C62,34.8425 61.7325,34.1975 61.2675,33.7325 C60.8025,33.2675 60.16,33 59.5,33 C58.8425,33 58.1975,33.2675 57.7325,33.7325 C57.2675,34.1975 57,34.8425 57,35.5 C57,36.16 57.2675,36.8025 57.7325,37.2675 C58.1975,37.735 58.8425,38 59.5,38 Z" id="Shape" fill="#000000"></path>
        </g>
    </g>
</svg>