<?xml version="1.0" encoding="UTF-8"?>
<svg width="28px" height="28px" viewBox="0 0 28 28" version="1.1" xmlns="http://www.w3.org/2000/svg" xmlns:xlink="http://www.w3.org/1999/xlink">
    <!-- Generator: Sketch 49 (51002) - http://www.bohemiancoding.com/sketch -->
    <title>Group</title>
    <desc>Created with Sketch.</desc>
    <defs></defs>
    <g id="Page-1" stroke="none" stroke-width="1" fill="none" fill-rule="evenodd">
        <g id="Group">
            <rect id="Rectangle" fill="#FFFFFF" x="0" y="0" width="28" height="28" rx="14"></rect>
            <path d="M16.0209205,11.7873444 C16.0209205,11.181014 15.8451883,10.7409354 15.4937239,10.4671087 C15.1617852,10.173723 14.7029289,10.0270301 14.1171548,10.0270301 C13.7266388,10.0270301 13.3361227,10.0759277 12.9456067,10.173723 C12.5746165,10.2715182 12.2524407,10.4182111 11.9790795,10.6138016 L11.9790795,20.7942862 C11.7838215,20.8529633 11.4714087,20.9116404 11.041841,20.9703176 C10.6317992,21.0289947 10.2022315,21.0583333 9.75313808,21.0583333 C9.32357043,21.0583333 8.9330544,21.0289947 8.58158996,20.9703176 C8.24965132,20.9116404 7.9665272,20.7942862 7.73221757,20.6182547 C7.49790795,20.4422232 7.31241283,20.2075146 7.17573222,19.914129 C7.05857741,19.6011842 7,19.2002237 7,18.7112475 L7,9.90967582 C7,9.38158152 7.10739191,8.95128246 7.32217573,8.61877865 C7.55648536,8.28627482 7.86889819,7.98310958 8.25941423,7.70928291 C8.92329149,7.23986574 9.75313808,6.85846431 10.748954,6.56507858 C11.7642957,6.27169286 12.8870293,6.125 14.1171548,6.125 C16.3235704,6.125 18.0223153,6.61397621 19.2133891,7.59192861 C20.404463,8.55032197 21,9.89011677 21,11.611313 L21,20.7942862 C20.804742,20.8529633 20.4923292,20.9116404 20.0627616,20.9703176 C19.6527196,21.0289947 19.223152,21.0583333 18.7740585,21.0583333 C18.3444909,21.0583333 17.9539749,21.0289947 17.6025105,20.9703176 C17.2705718,20.9116404 16.9874477,20.7942862 16.7531381,20.6182547 C16.5188285,20.4422232 16.3333333,20.2075146 16.1966527,19.914129 C16.0794979,19.6011842 16.0209205,19.2002237 16.0209205,18.7112475 L16.0209205,11.7873444 Z" id="path66299" fill="#000000" fill-rule="nonzero"></path>
        </g>
    </g>
</svg>