<?xml version="1.0" encoding="UTF-8"?>
<svg width="40px" height="44px" viewBox="0 0 40 44" version="1.1" xmlns="http://www.w3.org/2000/svg" xmlns:xlink="http://www.w3.org/1999/xlink">
    <!-- Generator: Sketch 49 (51002) - http://www.bohemiancoding.com/sketch -->
    <title>the-server-operation_1</title>
    <desc>Created with Sketch.</desc>
    <defs></defs>
    <g id="Page-1" stroke="none" stroke-width="1" fill="none" fill-rule="evenodd">
        <g id="the-server-operation_1" fill-rule="nonzero">
            <path d="M38.08146,1 L1.91854,1 C1.41124437,1 1,1.41525023 1,1.92748735 L1,11.0725127 C1,11.5847498 1.41124437,12 1.91854,12 L38.08146,12 C38.5887556,12 39,11.5847498 39,11.0725127 L39,1.92748735 C39,1.41525023 38.5887556,1 38.08146,1 Z M6.69265169,8.35497471 C5.67806043,8.35497471 4.8555717,7.52447426 4.8555717,6.50000002 C4.8555717,5.47552579 5.67806043,4.64502533 6.69265169,4.64502533 C7.70724296,4.64502533 8.52973169,5.47552579 8.52973169,6.50000002 C8.52973169,6.9919699 8.33618275,7.46378997 7.99166342,7.81166521 C7.64714409,8.15954044 7.1798756,8.35497471 6.69265169,8.35497471 Z M12.5047136,8.35497471 C11.7616841,8.35497471 11.091818,7.90302464 10.807473,7.2098681 C10.5231279,6.51671157 10.6803006,5.71885388 11.2057018,5.18833484 C11.731103,4.65781579 12.5212639,4.49911203 13.2077336,4.78622687 C13.8942034,5.07334171 14.3417936,5.74973279 14.3417936,6.50000002 C14.3417936,6.9919699 14.1482446,7.46378997 13.8037253,7.81166521 C13.459206,8.15954044 12.9919375,8.35497471 12.5047136,8.35497471 Z" id="Shape" fill="#ADD8F7"></path>
            <path d="M38.155407,13 L1.84459303,13 C0.825852428,13 3.00290753e-16,12.1601301 0,11.1240981 L0,1.87590187 C-3.00290753e-16,0.839869873 0.825852428,1.9031599e-16 1.84459303,0 L38.155407,0 C39.1741476,6.34386632e-17 40,0.839869873 40,1.87590187 L40,11.1240981 C40,12.1601301 39.1741476,13 38.155407,13 Z M1.84459303,1.87590187 L1.84459303,11.1240981 L38.1577127,11.1240981 L38.1577127,1.87590187 L1.84459303,1.87590187 Z" id="Shape" fill="#158FFF"></path>
            <path d="M33.1039426,8 L18.53181,8 C18.0369312,8 17.6357527,7.55228474 17.6357527,6.99999998 C17.6357527,6.44771521 18.0369312,5.99999995 18.53181,5.99999995 L33.1039426,5.99999995 C33.5988215,5.99999995 34,6.44771521 34,6.99999998 C34,7.55228474 33.5988215,8 33.1039426,8 Z M6.68817203,10 C5.20353561,10 4,8.65685425 4,7 C4,5.34314575 5.20353561,4 6.68817203,4 C8.17280844,4 9.37634405,5.34314575 9.37634405,7 C9.37634405,8.65685425 8.17280844,10 6.68817203,10 Z M6.68817203,5.99999995 C6.19329323,5.99999995 5.79211469,6.4477152 5.79211468,6.99999994 C5.79211468,7.55228468 6.1932932,7.99999994 6.688172,7.99999995 C7.1830508,7.99999997 7.58422935,7.55228474 7.58422937,7 C7.58422938,6.7347835 7.48982361,6.48042958 7.32178026,6.29289319 C7.15373691,6.1053568 6.92582122,5.99999995 6.68817203,5.99999995 Z M12.3579749,10 C10.8733385,10 9.66980287,8.65685425 9.66980287,7 C9.66980287,5.34314575 10.8733385,4 12.3579749,4 C13.8426113,4 15.0461469,5.34314575 15.0461469,7 C15.0461469,8.65685425 13.8426113,10 12.3579749,10 Z M12.3579749,5.99999995 C11.8630961,5.99999995 11.4619176,6.4477152 11.4619175,6.99999994 C11.4619175,7.55228468 11.8630961,7.99999994 12.3579749,7.99999995 C12.8528537,7.99999997 13.2540322,7.55228474 13.2540322,7 C13.2540322,6.7347835 13.1596265,6.48042958 12.9915831,6.29289319 C12.8235398,6.1053568 12.5956241,5.99999995 12.3579749,5.99999995 Z" id="Shape" fill="#158FFF"></path>
            <path d="M38.08146,16 L1.91854,16 C1.41124437,16 1,16.4153378 1,16.9276829 L1,26.0723171 C1,26.5846622 1.41124437,27 1.91854,27 L38.08146,27 C38.5887556,27 39,26.5846622 39,26.0723171 L39,16.9276829 C39,16.4153378 38.5887556,16 38.08146,16 Z M6.69265169,23.3565254 C5.67806043,23.3565254 4.8555717,22.5258498 4.8555717,21.5011596 C4.8555717,20.4764694 5.67806043,19.6457938 6.69265169,19.6457938 C7.70724296,19.6457938 8.52973169,20.4764694 8.52973169,21.5011596 C8.52973169,22.5258498 7.70724296,23.3565254 6.69265169,23.3565254 Z M12.5047136,23.3565254 C11.7616841,23.3565254 11.091818,22.90448 10.807473,22.2111774 C10.5231279,21.5178747 10.6803006,20.7198488 11.2057018,20.1892179 C11.731103,19.658587 12.5212639,19.4998497 13.2077336,19.7870251 C13.8942034,20.0742005 14.3417936,20.7507342 14.3417936,21.5011596 C14.3417936,22.5258498 13.5193048,23.3565254 12.5047136,23.3565254 Z" id="Shape" fill="#ADD8F7"></path>
            <path d="M38.155407,28 L1.84459303,28 C1.35537653,28 0.88619707,27.8023252 0.540268774,27.4504619 C0.194340477,27.0985986 -1.12086229e-08,26.6213695 0,26.1237597 L0,16.8762403 C-1.12086229e-08,16.3786305 0.194340477,15.9014014 0.540268774,15.5495381 C0.88619707,15.1976748 1.35537653,15 1.84459303,15 L38.155407,15 C38.6446235,15 39.1138029,15.1976748 39.4597312,15.5495381 C39.8056595,15.9014014 40,16.3786305 40,16.8762403 L40,26.1237597 C40,26.6213695 39.8056595,27.0985986 39.4597312,27.4504619 C39.1138029,27.8023252 38.6446235,28 38.155407,28 Z M1.84459303,16.8762403 L1.84459303,26.1237597 L38.1577127,26.1237597 L38.1577127,16.8762403 L1.84459303,16.8762403 Z" id="Shape" fill="#158FFF"></path>
            <path d="M33.1039427,23 L18.53181,23 C18.0369312,23 17.6357527,22.5522847 17.6357527,22 C17.6357527,21.4477153 18.0369312,21 18.53181,21 L33.1039427,21 C33.5988215,21 34,21.4477153 34,22 C34,22.5522847 33.5988215,23 33.1039427,23 Z M6.68817203,25 C5.20353561,25 4,23.6568542 4,22 C4,20.3431458 5.20353561,19 6.68817203,19 C8.17280845,19 9.37634406,20.3431458 9.37634406,22 C9.37634406,22.7956495 9.09312675,23.5587112 8.5889967,24.1213203 C8.08486665,24.6839295 7.40111958,25 6.68817203,25 Z M6.68817203,21 C6.19329322,21 5.79211469,21.4477153 5.79211469,22 C5.79211469,22.5522847 6.19329322,23 6.68817203,23 C7.18305083,23 7.58422937,22.5522847 7.58422937,22 C7.58422937,21.4477153 7.18305083,21 6.68817203,21 Z M12.3579749,25 C10.8733385,25 9.66980287,23.6568542 9.66980287,22 C9.66980287,20.3431458 10.8733385,19 12.3579749,19 C13.8426113,19 15.0461469,20.3431458 15.0461469,22 C15.0461469,22.7956495 14.7629296,23.5587112 14.2587996,24.1213203 C13.7546695,24.6839295 13.0709224,25 12.3579749,25 Z M12.3579749,21 C11.8630961,21 11.4619176,21.4477153 11.4619176,22 C11.4619176,22.5522847 11.8630961,23 12.3579749,23 C12.8528537,23 13.2540322,22.5522847 13.2540322,22 C13.2540322,21.4477153 12.8528537,21 12.3579749,21 Z" id="Shape" fill="#158FFF"></path>
            <path d="M38.08146,32 L1.91854,32 C1.41124437,32 1,32.4153378 1,32.9276829 L1,42.0723171 C1,42.5846622 1.41124437,43 1.91854,43 L38.08146,43 C38.5887556,43 39,42.5846622 39,42.0723171 L39,32.9276829 C39,32.4153378 38.5887556,32 38.08146,32 Z M6.69265169,39.3611638 C5.67806043,39.3611638 4.8555717,38.5304883 4.8555717,37.505798 C4.8555717,36.4811078 5.67806043,35.6504322 6.69265169,35.6504322 C7.70724296,35.6504322 8.52973169,36.4811078 8.52973169,37.505798 C8.52973169,38.5304883 7.70724296,39.3611638 6.69265169,39.3611638 Z M12.5047136,39.3611638 C11.7616841,39.3611638 11.091818,38.9091185 10.807473,38.2158158 C10.5231279,37.5225131 10.6803006,36.7244872 11.2057018,36.1938563 C11.731103,35.6632254 12.5212639,35.5044882 13.2077336,35.7916636 C13.8942034,36.0788389 14.3417936,36.7553726 14.3417936,37.505798 C14.3417936,38.5304883 13.5193048,39.3611638 12.5047136,39.3611638 Z" id="Shape" fill="#ADD8F7"></path>
            <path d="M38.155407,44 L1.84459303,44 C0.825852428,44 3.00290753e-16,43.1599786 0,42.1237597 L0,32.8762403 C3.60348904e-15,31.8400214 0.825852428,31 1.84459303,31 L38.155407,31 C39.1741476,31 40,31.8400214 40,32.8762403 L40,42.1237597 C40,43.1599786 39.1741476,44 38.155407,44 Z M1.84459303,32.8762403 L1.84459303,42.1237597 L38.1577127,42.1237597 L38.1577127,32.8762403 L1.84459303,32.8762403 Z" id="Shape" fill="#158FFF"></path>
            <path d="M33.1039426,38 L18.53181,38 C18.0369312,38 17.6357527,37.5522847 17.6357527,37 C17.6357527,36.4477152 18.0369312,36 18.53181,36 L33.1039426,36 C33.5988215,36 34,36.4477152 34,37 C34,37.5522847 33.5988215,38 33.1039426,38 Z M6.68817203,40 C5.20353561,40 4,38.6568542 4,37 C4,35.3431458 5.20353561,34 6.68817203,34 C8.17280844,34 9.37634405,35.3431458 9.37634405,37 C9.37634405,38.6568542 8.17280844,40 6.68817203,40 Z M6.68817203,36 C6.19329323,36 5.79211469,36.4477152 5.79211468,36.9999999 C5.79211468,37.5522847 6.1932932,37.9999999 6.688172,38 C7.1830508,38 7.58422935,37.5522847 7.58422937,37 C7.58422938,36.7347835 7.48982361,36.4804296 7.32178026,36.2928932 C7.15373691,36.1053568 6.92582122,36 6.68817203,36 Z M12.3579749,40 C10.8733385,40 9.66980287,38.6568542 9.66980287,37 C9.66980287,35.3431458 10.8733385,34 12.3579749,34 C13.8426113,34 15.0461469,35.3431458 15.0461469,37 C15.0461469,38.6568542 13.8426113,40 12.3579749,40 Z M12.3579749,36 C11.8630961,36 11.4619176,36.4477152 11.4619175,36.9999999 C11.4619175,37.5522847 11.8630961,37.9999999 12.3579749,38 C12.8528537,38 13.2540322,37.5522847 13.2540322,37 C13.2540322,36.7347835 13.1596265,36.4804296 12.9915831,36.2928932 C12.8235398,36.1053568 12.5956241,36 12.3579749,36 Z" id="Shape" fill="#158FFF"></path>
        </g>
    </g>
</svg>