<?xml version="1.0" ?><!DOCTYPE svg  PUBLIC '-//W3C//DTD SVG 1.1//EN'  'http://www.w3.org/Graphics/SVG/1.1/DTD/svg11.dtd'><svg enable-background="new 0 0 300 300" height="2048px" style="shape-rendering:geometricPrecision; text-rendering:geometricPrecision; image-rendering:optimizeQuality; fill-rule:evenodd; clip-rule:evenodd" version="1.1" viewBox="0 0 2048 2048" width="2048px" xml:space="preserve" xmlns="http://www.w3.org/2000/svg" xmlns:xlink="http://www.w3.org/1999/xlink"><defs><style type="text/css">
   <![CDATA[
    .fil2 {fill:none}
    .fil0 {fill:#2DC100}
    .fil1 {fill:#FFFFFE}
   ]]>
  </style></defs><g id="Layer_x0020_1"><g id="_337874808"><path class="fil0" d="M1792 497.84c0,-66.7808 -27.0697,-127.244 -70.8331,-171.007 -43.7634,-43.7634 -104.225,-70.8331 -171.007,-70.8331l-1052.32 0c-66.7808,0 -127.243,27.0697 -171.006,70.8343 -43.7646,43.7634 -70.8343,104.225 -70.8343,171.006l0 1052.32c0,66.7819 27.0685,127.245 70.8319,171.008 43.7634,43.7634 104.226,70.8319 171.008,70.8319l1052.32 0c66.7819,0 127.245,-27.0685 171.008,-70.8319 43.7634,-43.7634 70.8319,-104.226 70.8319,-171.008l0 -1052.32z" id="_305700136"/><path class="fil1" d="M1216.05 631.543c-61.1056,-79.7859 -148.096,-136.364 -244.862,-164.718 -96.2469,-28.2012 -202.232,-28.4788 -302.04,4.12205 -75.5623,24.6851 -140.958,61.2095 -192.741,111.747 -48.7193,47.55 -85.2142,107.306 -106.598,181.035 -23.9079,82.454 -19.9736,163.793 8.82048,238.001 28.9028,74.4839 82.7623,141.541 158.535,195.037 8.31379,5.88071 12.9165,10.7622 14.5122,15.6709 1.59803,4.91339 0.694489,11.5429 -2.05984,20.7 -7.05827,23.465 -12.0319,47.7473 -17.387,73.8922 -2.39646,11.7012 -4.87087,23.7839 -7.43268,35.3705l-8.38583 37.9276 32.8961 -20.5666c15.3047,-9.56812 27.5929,-17.3717 39.4914,-24.9295 32.1142,-20.3941 61.7209,-39.1973 90.4241,-55.3937 4.10551,-2.31614 9.3319,-3.88465 14.9847,-4.84134 6.95434,-1.17756 14.3776,-1.32756 21.2103,-0.753544 31.5567,2.65748 61.7292,6.60355 93.3615,10.7398 16.4799,2.15433 33.2327,4.34646 40.063,5.19213l19.9512 2.46969 -1.69606 -20.0232c-5.19449,-61.3359 1.65827,-116.608 20.1638,-166.502 18.502,-49.878 48.6922,-94.6005 90.1749,-134.841 41.1768,-39.9473 87.156,-68.7745 137.445,-88.3843 50.5689,-19.7185 105.581,-30.1595 164.522,-33.2374l16.9583 -0.885827 -1.57559 -16.8591c-3.59882,-38.5146 -12.2091,-74.0457 -25.4646,-107.185 -13.2626,-33.1536 -31.1386,-63.8823 -53.2713,-92.7827zm-204.105 79.8024c19.4563,-0.159449 37.0642,7.36418 49.8981,19.7563 12.8965,12.4559 20.9941,29.8087 21.3473,49.2296l0 0.0637796 0.00708662 0.5563 0 0.0637796c0.190158,19.8874 -7.3441,37.6075 -19.9595,50.4615 -12.587,12.8303 -30.1713,20.7106 -50.0989,20.9492 -19.8166,0.238583 -37.7516,-7.26851 -50.837,-19.7103 -13.1669,-12.5197 -21.4205,-30.026 -21.7748,-49.6878 -0.348425,-19.1173 7.67953,-36.9473 20.648,-50.0197 12.8327,-12.9366 30.6591,-21.2965 50.0729,-21.6543l0.0637796 0 0.569292 -0.00826772 0.0637796 0zm-295.34 22.4551c12.6532,13.1634 20.3953,30.9355 19.8437,49.8012l0 0.0637796 -0.0153543 0.453544 0 0.0637796c-0.737008,19.3914 -9.42048,36.691 -22.8768,48.9945 -13.3429,12.202 -31.3831,19.4953 -50.9634,18.998l-0.0649607 0 -0.245669 -0.00708662c-19.7669,-0.582284 -37.1941,-8.77442 -49.5792,-21.7512 -12.398,-12.9898 -19.6949,-30.7252 -19.1941,-50.3788l0.00590552 -0.239764 0 -0.0637796c0.581103,-19.6288 9.04607,-37.037 22.3288,-49.376 13.2295,-12.2917 31.2272,-19.5638 50.9398,-18.9851l0.0649607 0 0.49252 0.0165354 0.0637796 0c19.1457,0.73819 36.6614,9.36851 49.2,22.4103z" id="_337847680"/><path class="fil1" d="M1593.45 1034.22c-57.9603,-74.7296 -147.527,-121.119 -243.329,-135.385 -96.0261,-14.2973 -198.046,3.70985 -280.629,57.8126 -27.3662,17.928 -51.0851,37.9973 -71.0953,59.6327 -48.6367,52.5827 -76.3642,114.998 -82.2485,178.937 -5.87363,63.8126 10.0441,129.346 48.6756,188.314 15.3827,23.478 34.2319,45.8233 56.5961,66.5067 41.8359,38.6906 88.0902,66.0189 138.013,82.3064 50.7473,16.5555 105.382,21.7099 163.113,15.8043 14.5417,-1.48583 30.1051,-5.95394 45.554,-10.389 24.3248,-6.9815 48.404,-13.8933 73.5402,-11.2689 29.0634,3.03425 55.2355,16.813 82.1481,31.0087 -9.38977,-21.2362 -10.7398,-39.7122 -5.2937,-57.4867 6.04607,-19.7244 20.3729,-37.0477 41.2465,-55.5662 60.9544,-54.0792 94.5095,-123.698 100.491,-195.905 6.0567,-73.1245 -16.1445,-149.038 -66.7819,-214.322zm-239.959 42.2646c11.061,-10.6606 26.061,-17.2158 42.3319,-17.1024l0.0637796 0 1.73268 0.0295276 0.0637796 0c16.5614,0.609449 31.317,7.80119 41.8843,19.0382 10.4953,11.1579 16.8638,26.3162 16.748,42.9473l-0.0307087 1.93465c-0.608268,16.6347 -7.54725,31.3063 -18.528,41.8158 -10.9949,10.5213 -25.9536,16.8496 -42.5823,16.7929 -1.02165,-0.0011811 -1.80709,-0.0153543 -2.35158,-0.0366142 -16.415,-0.656693 -31.0122,-7.7315 -41.4839,-18.7843 -10.448,-11.0244 -16.8,-25.9878 -16.7575,-42.4477 0.0011811,-1.02638 0.0141732,-1.84134 0.0377953,-2.40945 0.656693,-16.3618 7.83426,-31.1421 18.8717,-41.778zm-237.202 -17.1697c16.6075,0.634252 31.4906,7.81536 42.1831,18.9626 10.6925,11.1532 17.2465,26.2984 17.1945,42.8563l0 0.0637796c-0.0011811,0.937796 -0.0129921,1.65236 -0.034252,2.13425 -0.649607,16.5083 -7.81772,31.2685 -18.978,41.876 -11.1236,10.5744 -26.2418,17.0528 -42.8221,17.0374 -16.5307,-0.0200788 -31.6677,-6.62835 -42.789,-17.3032 -11.1307,-10.6831 -18.2965,-25.5142 -18.8835,-41.9752 -0.022441,-0.620079 -0.0307087,-1.41378 -0.0271654,-2.35866 0.0767717,-16.3512 6.83741,-31.415 17.6327,-42.4784 10.8012,-11.0669 25.7067,-18.2457 42.0614,-18.8209 0.624804,-0.022441 1.43032,-0.0307087 2.38937,-0.0271654l2.07284 0.0330709z" id="_337882704"/></g></g><rect class="fil2" height="2048" width="2048"/></svg>